<?xml version="1.0" encoding="utf-8"?>
<!-- Generator: Adobe Illustrator 27.0.0, SVG Export Plug-In . SVG Version: 6.00 Build 0)  -->
<svg version="1.1" id="圖層_1" xmlns="http://www.w3.org/2000/svg" xmlns:xlink="http://www.w3.org/1999/xlink" x="0px" y="0px"
	 viewBox="0 0 140 110" style="enable-background:new 0 0 140 110;" xml:space="preserve">
<style type="text/css">
	.st0{fill:#FFFFFF;}
</style>
<path class="st0" d="M91.7,33.4c1-1.4,2.2-3.8,0.8-7.6c-0.8-2.2-0.6-3.4-0.1-4.5l0.5-1.1l-1.2-0.1c-1.3-0.1-2.3-0.6-3.8-2.4
	c-2.6-3.1-5.4-3.2-7-3.1c-0.7-1.5-2.2-3.8-6.2-4.5c-2.3-0.4-3.2-1.1-4-2.2l-0.7-1l-0.7,1c-0.7,1-1.7,1.7-4,2.2c-4,0.7-5.5,3-6.2,4.5
	c-1.7-0.1-4.4,0-7,3.1c-1.5,1.8-2.6,2.2-3.8,2.4l-1.2,0.1l0.5,1.1c0.5,1.2,0.7,2.3-0.1,4.5c-1.4,3.8-0.1,6.3,0.8,7.6
	c-1,1.4-2.2,3.8-0.8,7.6c0.8,2.2,0.6,3.4,0.1,4.5l-0.5,1.1l1.2,0.1c1.3,0.1,2.3,0.6,3.8,2.4c2.6,3.1,5.4,3.2,7,3.1
	c0.7,1.5,2.2,3.8,6.2,4.5c2.3,0.4,3.2,1.1,4,2.2l0.7,1l0.7-1c0.7-1,1.7-1.7,4-2.2c4-0.7,5.5-3,6.2-4.5c1.7,0.1,4.4,0,7-3.1
	c1.5-1.8,2.6-2.2,3.8-2.4l1.2-0.1l-0.5-1.1c-0.5-1.2-0.7-2.3,0.1-4.5C93.9,37.2,92.7,34.8,91.7,33.4L91.7,33.4z M84.6,17.1
	c0.6,0.4,1.3,0.9,1.9,1.7c1.3,1.5,2.5,2.4,3.9,2.8c-0.3,1.1-0.3,2.3,0.1,3.6h-5.9V17.1z M69.4,38.8v0.8H56.1v-6.2h-1.6h-4.1
	l-0.3-0.4c-0.7-1-1.5-2.1-1.5-3.8H58c0.6,2.7,2.1,5.1,4.2,6.9C62.2,36,65.4,38.5,69.4,38.8L69.4,38.8z M64.5,35.7l4.9-2.6v4.1
	C67.6,37.1,65.9,36.5,64.5,35.7z M49.4,34.9h5.1v4.7h-5.7C48.3,37.5,48.7,36.1,49.4,34.9z M49.6,45.1v0.2c0,0,0,0-0.1,0
	c0.3-1.2,0.3-2.5-0.2-4.1h5.2v3.9L49.6,45.1L49.6,45.1z M53.5,48c-0.4-0.5-0.9-1-1.3-1.3h2.4v2.4C54.2,48.8,53.8,48.4,53.5,48z
	 M62.4,53.7c-1-0.8-1.5-1.8-1.9-2.8l-0.3-0.6l-0.7,0.1c-1.1,0.1-2.2,0.2-3.5-0.3v-3.4h6.3V53.7z M62.4,45.1h-6.3v-3.9h6.3V45.1z
	 M69.4,56.5c-1-0.7-2.1-1.2-3.8-1.5c-0.6-0.1-1.2-0.3-1.6-0.4v-7.9h5.4V56.5L69.4,56.5z M69.4,45.1H64v-3.9h5.4V45.1z M64.1,24v1.7
	h5.3v0.9l-6.2,3.2l0.8,1.5l5.4-2.8v2.6L63,34.5c-2.3-2-3.7-4.9-3.7-8.2c0-1.7,0.4-3.4,1.1-4.8v2.8h1.7V22h16.2v2.7h1.7v-2.8
	c0.6,1.4,1,2.9,1,4.5c0,3.2-1.4,6.1-3.6,8.1l-6.3-3.3l3.9-1.8l-0.7-1.6l-3.4,1.6v-3.7h5.5V24L64.1,24L64.1,24z M61.2,20.2
	c2-2.9,5.3-4.8,9-4.8s7,1.9,9,4.8H61.2z M75.9,35.6c-1.5,0.9-3.1,1.5-4.9,1.6V33L75.9,35.6z M83,50.3c-0.9,0.2-1.8,0.2-2.6,0.1
	l-0.7-0.1l-0.3,0.6c-0.7,1.7-1.8,3.5-5.1,4.1c-1.4,0.3-2.5,0.6-3.4,1.2v-4.5h5.2v-1.6H71v-3.5H83V50.3z M83,45.1H71v-3.9H83V45.1z
	 M83,39.6H70.9v-0.8c2.2-0.1,4.2-0.8,5.9-2l1.2-0.9c2.8-2.3,4.5-5.7,4.5-9.6c0-6.9-5.6-12.4-12.4-12.4s-12.4,5.6-12.4,12.4
	c0,0.4,0,0.8,0.1,1.2h-9c0.1-0.4,0.2-0.7,0.3-1.2c0.7-1.9,0.8-3.4,0.4-4.8c1.4-0.4,2.6-1.2,3.9-2.8c2.2-2.6,4.3-2.6,6.1-2.4l0.7,0.1
	l0.3-0.6c0.7-1.7,1.8-3.5,5.1-4.1c2-0.4,3.3-1,4.4-2c1,1,2.4,1.7,4.4,2c3.4,0.6,4.4,2.4,5.1,4.1l0.3,0.6l0.7-0.1
	c0.8-0.1,1.7-0.2,2.6,0.1L83,39.6L83,39.6z M86.5,48c-0.7,0.8-1.3,1.3-1.9,1.7v-3h3.2C87.4,47,87,47.5,86.5,48z M90.4,45.1h-5.8
	v-3.9h6C90.2,42.7,90.1,43.9,90.4,45.1z M91.2,39.6h-6.5V26.8H91c0.9,3-0.1,4.7-1.1,6.1l-0.4,0.5h-2.9V35h4
	C91.3,36.1,91.7,37.5,91.2,39.6z"/>
<path class="st0" d="M74.2-192.7h-7.8v1.7h7.8V-192.7z"/>
<g>
	<path class="st0" d="M29.8,83.4c-0.2,0.2-0.6,0.4-1.3,0.2c-2.1,0.9-4.9,1.9-8,2.7c2.2,4.7,6.8,7.3,11.6,8.8L32,95.5
		c-1.6,0.3-2.7,1.6-3.3,3.4c-4.4-2.7-7.4-6.3-9-12.4c-0.7,0.2-1.5,0.4-2.1,0.5c2.6,4.8,2.4,10.4,0.6,12.6c-0.9,1.1-2.6,1.5-5.1,1.5
		c0-1.1-0.3-2-0.8-2.5c-0.4-0.4-1.6-0.9-2.9-1.3v-0.4c1.4,0.2,3.7,0.2,4.5,0.2c0.5,0,0.8-0.1,1-0.4c0.5-0.7,0.8-2.1,0.8-3.9
		c-4.1,2.6-9.7,4.9-15.2,6.1l-0.2-0.5c5.7-2.1,11.6-6.2,14.9-10.4c-0.1-0.2-0.2-0.6-0.2-0.9c-3.5,2.3-8.6,4.6-13.5,5.9l-0.2-0.4
		c4.4-2.1,9.3-5.9,12-9.4l-0.2-0.4c-3.2,1.9-7.1,3.4-11.2,4.4l-0.2-0.4c4.1-1.9,8-4.8,10.5-7.4H5.2l-0.2-1h16.5l2.1-2.7
		c0,0,1.3,1.1,2.6,2.1c0.2-1,0.2-2.3,0.4-3.4H5.2c0.2,2.4-0.7,4.1-1.9,4.8c-1.1,0.7-2.7,0.4-3.2-0.9c-0.4-1.2,0.3-2.1,1.3-2.6
		C2.7,75,4,73.3,3.9,71.4h0.5c0.2,0.7,0.4,1.3,0.6,2h10.3c-0.2-0.1-0.4-0.2-0.7-0.3c-0.2-1.6-1.3-3.2-2.4-4.1l0.2-0.2
		c7-0.4,6.7,3.7,4.6,4.6h9.2l2.1-2.1l3.6,3.4c-0.2,0.3-0.7,0.4-1.3,0.4c-1,0.9-2.7,2.2-4,3c0.3,0.2,0.6,0.5,0.8,0.7
		c-0.1,0.4-0.4,0.6-0.9,0.6h-9c-1.1,1.1-2.4,2.1-3.9,3c1.5,1.1,2.6,2.5,3.4,3.9c3.1-1.9,6.6-4.5,8.5-6.2L29.8,83.4z"/>
	<path class="st0" d="M66.9,73.5c-0.2,0.3-0.7,0.6-1.4,0.7v24.7c-0.1,0.3-2,1.2-3.4,1.2h-0.7v-2.8H42.1V99c0,0.5-1.6,1.5-3.3,1.5
		h-0.7V70.8l4.4,1.8h18.6l2-2.2L66.9,73.5z M42.1,73.5v10.8h7.5V73.5H42.1z M42.1,96.4h7.5V85.3h-7.5V96.4z M53.6,73.5v10.8h7.8
		V73.5H53.6z M61.4,96.4V85.3h-7.8v11.2L61.4,96.4L61.4,96.4z"/>
	<path class="st0" d="M84.1,83.5c-0.2,0.4-0.6,0.5-1.3,0.6c-0.5,3.5-1.4,6.9-3.1,9.9c3.8,2.1,8.9,2.5,16,2.5c1.8,0,6,0,8.1,0v0.4
		c-1.6,0.3-2.4,1.7-2.5,3.4h-6c-8,0-13.4-0.8-17.2-4.2c-1.6,2-3.8,3.8-6.7,5.2l-0.2-0.4c2.4-1.8,4.1-4,5.3-6.6
		c-1.6-2.1-2.8-4.9-3.8-8.6l0.4-0.2c1.1,3,2.5,5.2,4.3,6.8c1-2.7,1.5-5.6,1.7-8.6H77l-1.2,1.2l-3.4-2.1c0.3-0.2,0.7-0.6,1.2-0.7
		c1.2-2.3,3-6.2,3.9-8.5h-5.7l-0.3-1h6l1.7-1.7l3.4,3.1c-0.2,0.3-0.8,0.5-1.5,0.6c-0.9,2.1-2.7,5.8-3.9,8.3h1.5l1.9-2L84.1,83.5z
		 M101.5,74.4c0,0,1.9,1.9,2.9,3.1c-0.1,0.4-0.4,0.6-0.9,0.6h-3.9v4.8c0,0.2-1.9,0.9-3.1,0.9h-0.6v-1.1h-3v3.5h3.3l2-2.5
		c0,0,2.2,1.7,3.5,3c-0.1,0.4-0.4,0.6-0.9,0.6H93v3.6h4.1l2.1-2.7c0,0,2.5,1.8,4,3.2c-0.1,0.4-0.5,0.6-1,0.6h-9.4V95
		c0,0.3-1.6,1.1-3.1,1.1H89v-4.3H82l-0.2-1H89v-3.8h-5.4l-0.2-1h5.7v-3.5h-5l-0.3-1h5.3v-3.5h-7.6l-0.2-1h7.9v-3.4h-5.4l-0.3-1h5.7
		v-3.8l5.2,0.5c-0.1,0.5-0.3,0.9-1.3,1v2.3h2.7l1.7-1.9l3.7,2.8c-0.2,0.2-0.7,0.6-1.3,0.7v2.9h0.2L101.5,74.4z M92.8,77.2h3v-3.4h-3
		V77.2z M95.8,78.1h-3v3.5h3V78.1z"/>
	<path class="st0" d="M119.2,73.3c0,0,2,1.6,3.2,2.7c-0.1,0.4-0.4,0.6-0.9,0.6h-14l-0.2-1h10.3L119.2,73.3z M126.8,74
		c0,2.8-0.7,7.5-6.4,10.2c0.2,0.2,0.4,0.4,0.7,0.7c-0.1,0.4-0.4,0.6-0.9,0.6h-11.1l-0.2-1h7.6l1.6-2.1c0,0,1,0.7,2,1.6
		c2.9-3,3.3-6.7,3.3-9.8v-4.3l4.3,1.6h3l1.8-2l3.4,2.8c-0.2,0.2-0.7,0.4-1.2,0.5v5.7c0,0.3,0.1,0.5,0.6,0.5h0.9h0.9
		c0.2,0,0.6,0,0.7,0c0.2,0,0.6-0.1,0.8-0.2h0.3h0.2c0.8,0.4,1.1,0.7,1.1,1.5c0,1.4-1.1,2.1-4.5,2.1h-1.6c-2.6,0-2.9-0.7-2.9-3v-7.1
		h-3.9V74H126.8z M116.3,79.9l1.6-2.1c0,0,1.9,1.5,3,2.6c-0.1,0.4-0.4,0.6-0.9,0.6h-11l-0.2-1L116.3,79.9L116.3,79.9z M116.6,99.5
		v-1.9h-3.9v2.1c0,0.3-1.5,1.1-3,1.1h-0.6V87.4l3.7,1.5h3.4l1.6-1.7l3.5,2.6c-0.2,0.2-0.7,0.5-1.3,0.7v8c0,0.2-1.7,1.1-3,1.1
		C117.2,99.5,116.6,99.5,116.6,99.5z M111,69.4c9.1,0.4,5.8,7.3,2.1,4.9c-0.2-1.7-1.4-3.6-2.4-4.8L111,69.4z M116.6,96.6v-6.7h-3.9
		v6.7H116.6z M137.7,85.9c-0.2,0.3-0.7,0.4-1.5,0.5c-1.2,3-2.9,5.5-5.1,7.7c2.5,1.4,5.5,2.4,8.6,3v0.4c-1.6,0.3-2.8,1.6-3.3,3.4
		c-3.1-1.1-5.7-2.6-7.8-4.6c-3,2.2-6.7,3.9-11.4,4.9l-0.2-0.4c4-1.6,7.3-3.7,9.9-6.4c-1.6-2.2-2.9-4.9-3.7-8.5h-1.6l-0.3-1h10.6
		l2.2-2.1L137.7,85.9z M123.9,85.8c1.1,2.8,2.6,4.9,4.7,6.6c1.5-2,2.6-4.2,3.4-6.6H123.9z"/>
</g>
</svg>
