<svg width="240" height="65" viewBox="0 0 240 65" fill="none" xmlns="http://www.w3.org/2000/svg">
<path d="M54.3399 32.0672C55.4918 30.416 57.0303 27.4855 55.3596 22.8426C54.3995 20.1747 54.5928 18.7731 55.2163 17.3796L55.8188 16.0344L54.3528 15.883C52.8336 15.7251 51.5238 15.1935 49.6937 13.0267C46.5087 9.25689 43.1997 9.1264 41.1956 9.29717C40.3401 7.4735 38.5729 4.67517 33.7157 3.802C30.9254 3.29936 29.8089 2.43263 28.9132 1.19376L28.0481 0L27.1846 1.19376C26.2889 2.43263 25.1724 3.29936 22.3806 3.802C17.525 4.67517 15.7561 7.47511 14.9022 9.29717C12.8965 9.12479 9.58749 9.2585 6.40412 13.0267C4.57401 15.1919 3.26425 15.7251 1.74346 15.883L0.277427 16.0344L0.879955 17.3796C1.50342 18.7748 1.69835 20.1747 0.736572 22.8426C-0.934051 27.4855 0.604471 30.416 1.75635 32.0672C0.604471 33.7185 -0.935662 36.649 0.736572 41.2919C1.69674 43.9598 1.50342 45.3597 0.879955 46.7549L0.279039 48.1001L1.74507 48.2515C3.26587 48.4094 4.57562 48.941 6.40573 51.1062C9.59071 54.876 12.8997 55.0081 14.9038 54.8357C15.7577 56.6594 17.5266 59.4577 22.3838 60.3309C25.1741 60.8335 26.2905 61.7002 27.1862 62.9391L28.0497 64.1329L28.9148 62.9391C29.8106 61.7019 30.927 60.8335 33.7173 60.3309C38.5729 59.4577 40.3418 56.6594 41.1972 54.8357C43.1997 55.0065 46.5103 54.876 49.6953 51.1062C51.5254 48.941 52.8352 48.4078 54.3544 48.2515L55.8204 48.1001L55.2179 46.7549C54.5928 45.3597 54.3995 43.9598 55.3613 41.2919C57.0319 36.649 55.4933 33.7185 54.3415 32.0672H54.3399ZM45.7419 12.3597C46.4991 12.8172 47.2756 13.4713 48.0617 14.4025C49.6357 16.2648 51.0808 17.3039 52.8142 17.7663C52.4469 19.1324 52.4808 20.5259 52.9173 22.1804H45.7419V12.3597ZM27.2893 38.5854V39.5343H11.2307V31.969H9.341H4.33075L3.92638 31.4293C3.03871 30.242 2.16554 28.85 2.12849 26.8637H13.5006C14.2465 30.1824 16.0831 33.0886 18.6204 35.1813C18.6204 35.1813 22.4466 38.2262 27.2861 38.5854H27.2893ZM21.3721 34.7866L27.2893 31.6725V36.6715C25.1322 36.5201 23.1184 35.8515 21.3721 34.7866ZM3.13698 33.8732H9.34261V39.5343H2.42008C1.76601 37.0131 2.30892 35.2699 3.13698 33.8732ZM3.36414 46.1991V46.3924C3.33514 46.3843 3.30774 46.3747 3.27714 46.3666C3.68311 44.8603 3.60095 43.3218 3.02904 41.4369H9.341V46.1975H3.36252L3.36414 46.1991ZM8.03124 49.7304C7.49316 49.0941 6.9712 48.5576 6.44762 48.1033H9.34261V51.0434C8.90925 50.6809 8.47266 50.2524 8.03124 49.7304ZM18.8814 56.6159C17.6651 55.6477 17.0368 54.4281 16.5406 53.273L16.2265 52.54L15.4339 52.6351C14.1467 52.7881 12.729 52.8477 11.2307 52.2194V48.1033H18.8814V56.6159ZM18.8814 46.1991H11.2307V41.4385H18.8814V46.1991ZM27.3328 60.0393C26.1761 59.1468 24.7294 58.5878 22.7575 58.2333C22.01 58.0996 21.3592 57.9144 20.7857 57.692V48.1049H27.3328V60.0409V60.0393ZM27.3328 46.1991H20.7857V41.4385H27.3328V46.1991ZM20.8662 20.65V22.7282H27.2893V23.8446L19.8174 27.7578L20.7824 29.5992L27.2893 26.1903V29.3237L19.5162 33.414C16.7807 31.0007 15.052 27.4694 15.052 23.5337C15.052 21.4297 15.5482 19.4417 16.4262 17.676V21.1204H18.5045V18.1916H38.1508V21.4974H40.229V18.1046C40.9781 19.7607 41.4002 21.5956 41.4002 23.5321C41.4002 27.4307 39.7054 30.9331 37.0134 33.3448L29.44 29.3591L34.1506 27.1601L33.2726 25.2768L29.1774 27.1875V22.7234H35.789V20.6452H20.8646L20.8662 20.65ZM17.3413 16.1166C19.7127 12.6432 23.7032 10.362 28.2269 10.362C32.7507 10.362 36.7411 12.6432 39.1126 16.1166H17.3413ZM35.1736 34.7286C33.4096 35.8257 31.3684 36.5153 29.179 36.6715V31.5743L35.1736 34.7286ZM43.8393 52.5561C42.718 52.8171 41.6515 52.7527 40.6607 52.6351L39.8681 52.54L39.554 53.273C38.6889 55.2868 37.4242 57.4971 33.3371 58.2317C31.6262 58.5394 30.3116 59.0018 29.2386 59.701V54.2928H35.5909V52.3886H29.2386V48.1033H43.8393V52.5561ZM43.8393 46.1991H29.2386V41.4385H43.8393V46.1991ZM43.8393 39.5327H29.1807V38.5838C31.8211 38.4162 34.2763 37.5705 36.3738 36.2156L37.8076 35.1717C41.1553 32.4056 43.2883 28.2234 43.2883 23.5418C43.2883 15.2144 36.5382 8.46427 28.2108 8.46427C19.8835 8.46427 13.1333 15.2144 13.1333 23.5418C13.1333 24.0186 13.1575 24.4906 13.201 24.9562H2.33308C2.42974 24.5164 2.56346 24.0541 2.74067 23.5627C3.56713 21.2686 3.74433 19.4965 3.27714 17.7647C5.01059 17.3023 6.45728 16.2632 8.03124 14.4009C10.712 11.2288 13.2574 11.24 15.4339 11.4962L16.2265 11.5896L16.5406 10.8566C17.4041 8.84286 18.6688 6.63255 22.7575 5.89792C25.1579 5.46617 26.7802 4.73316 28.0465 3.46368C29.3127 4.73316 30.9367 5.46617 33.3355 5.89792C37.4226 6.63255 38.6873 8.84286 39.5524 10.8566L39.8665 11.5896L40.6591 11.4962C41.6483 11.3786 42.7164 11.3142 43.8377 11.5751V39.5295L43.8393 39.5327ZM48.0634 49.7304C47.2756 50.6616 46.5007 51.3173 45.7435 51.7748V48.1033H49.647C49.1234 48.5576 48.6014 49.0941 48.0634 49.7304ZM52.774 46.1991H45.7419V41.4385H53.0623C52.5114 43.2541 52.4179 44.7459 52.774 46.1991ZM53.6729 39.5327H45.7419V24.0847H53.5247C54.6395 27.6692 53.4168 29.7522 52.165 31.4277L51.7059 32.0431H48.1423V33.9473H53.0011C53.805 35.3312 54.3157 37.0566 53.6729 39.5327Z" fill="white"/>
<path d="M33.1456 12.3386H23.7002V14.4168H33.1456V12.3386Z" fill="white"/>
<path d="M87.0861 3.63999C89.2094 3.84297 91.2602 4.1249 93.2401 4.49543C94.4871 4.54699 95.1105 4.88691 95.1105 5.51037C95.1105 5.71336 94.74 5.96629 94.0021 6.27883C93.2418 6.64131 92.8567 7.05373 92.8567 7.51126V9.20765H103.22C103.786 8.70018 104.264 8.27327 104.662 7.93173C105.228 7.33727 105.669 7.04084 105.982 7.04084C106.373 7.04084 107.322 7.66431 108.823 8.91123C110.186 10.0132 110.86 10.7961 110.86 11.2456C110.86 11.6161 110.534 11.8546 109.888 11.9705C109.091 11.9705 108.627 12.0205 108.482 12.1365C107.322 12.8469 105.982 13.5493 104.453 14.2598C104.989 14.9042 105.257 15.3182 105.257 15.4842C105.257 15.9691 105.046 16.2091 104.619 16.2091H92.0512C90.5514 17.4561 89.1804 18.471 87.9351 19.2668C90.2259 20.9922 91.8128 22.6516 92.6892 24.232C92.9131 24.5719 93.0806 24.8699 93.1966 25.1229C94.6095 24.2755 95.8999 23.354 97.0599 22.368C98.7852 20.8891 100.003 19.5198 100.714 18.2438C102.019 18.9833 103.164 19.6213 104.156 20.1577C105.482 20.8682 106.149 21.4191 106.149 21.8106C106.149 22.1505 105.793 22.3535 105.091 22.4051C104.322 22.4051 103.873 22.5501 103.728 22.832C102.481 23.4845 101.162 24.0789 99.7776 24.6154C98.4437 25.1229 96.5379 25.6368 94.044 26.1443C95.8854 27.9856 97.7397 29.471 99.6101 30.6019C102.951 32.4723 106.264 33.7917 109.547 34.5521L109.373 35.5735C108.126 35.9714 107.235 36.8349 106.699 38.1608C106.417 39.1532 106.061 39.6462 105.64 39.6462C105.017 39.6462 103.596 38.8278 101.393 37.1894C99.0672 35.5735 96.8923 33.5066 94.8479 30.9853C94.9059 31.3833 94.9349 31.7747 94.9349 32.1743C94.9349 35.2916 94.6095 37.5808 93.957 39.0517C93.3046 40.6675 92.4717 41.8565 91.4567 42.6249C90.5514 43.3273 89.8409 43.6834 89.3334 43.6834C88.9645 43.6834 88.6165 43.1904 88.275 42.198C87.7675 41.0671 86.1227 40.1037 83.3469 39.3127L83.5209 38.5877C85.5572 38.6973 86.9282 38.7537 87.6386 38.7537C88.6826 38.7537 89.364 38.3477 89.675 37.5212C89.9859 36.7898 90.1534 35.3464 90.1824 33.1941C88.0076 34.441 85.7828 35.4994 83.5209 36.3758C80.4922 37.5357 76.484 38.6876 71.4963 39.8185L71.1193 38.9277C74.6845 37.5357 77.7438 36.1084 80.2876 34.6375C83.1794 33.1667 86.3901 30.9854 89.9279 28.1C89.8409 27.4476 89.7475 26.7806 89.6315 26.0991C87.3696 27.57 85.0224 28.7879 82.5865 29.7513C79.8687 30.8532 76.2874 31.9326 71.8378 32.9766L71.4979 32.1727C74.6152 30.8387 77.2895 29.4549 79.5288 28.013C82.1016 26.5712 84.9934 24.4479 88.1896 21.6415C87.8207 20.931 87.4147 20.3365 86.9572 19.8581C86.6463 20.0256 86.3627 20.1851 86.1098 20.322C84.2104 21.3144 82.0371 22.1924 79.5723 22.9609C77.1074 23.6939 74.4187 24.3302 71.4979 24.8667L71.1209 23.9758C74.0352 23.0994 76.7385 21.9685 79.2308 20.5766C81.5216 19.2797 83.4629 17.8217 85.0514 16.2059H81.992C79.5272 16.2059 77.7889 16.2639 76.7659 16.3718L76.0409 14.6464C77.4329 14.8704 79.4112 14.9864 81.992 14.9864H98.1264C98.2343 14.9284 98.6918 14.4 99.4812 13.406C100.474 12.1816 101.039 11.5726 101.178 11.5726C101.576 11.5726 102.155 11.9287 102.924 12.6375C103.286 11.898 103.626 11.1586 103.939 10.4191H76.7659C76.7659 12.797 76.2874 14.3693 75.324 15.1297C74.5846 15.8402 73.6357 16.1946 72.4758 16.1946C71.8813 16.1946 71.3738 15.9562 70.9469 15.4697C70.6054 15.0782 70.4395 14.6368 70.4395 14.1583C70.4395 13.8973 71.1934 13.2094 72.6933 12.0704C74.1061 10.7736 74.8971 9.14966 75.0711 7.20677L75.875 7.03278C76.2439 7.88018 76.4985 8.60513 76.6354 9.1996H87.637V7.83668C87.637 6.48181 87.455 5.08185 87.0861 3.63354" fill="white"/>
<path d="M135.998 9.55386V22.6434H144.827V9.55386H135.998ZM121.908 22.6434H131.128V9.55386H121.908V22.6434ZM135.998 23.8178V37.7772H144.827V23.8178H135.998ZM121.908 37.7772H131.128V23.8178H121.908V37.7772ZM116.487 6.34311C118.524 6.87957 120.438 7.57553 122.221 8.42292H143.283C143.878 7.79946 144.392 7.234 144.812 6.72653C145.552 5.92908 146.059 5.5376 146.341 5.5376C146.906 5.5376 147.899 6.01606 149.32 6.97945C150.958 8.27631 151.777 9.13982 151.777 9.56674C151.777 9.96466 151.4 10.3996 150.631 10.8781C150.066 11.3646 149.784 11.8415 149.784 12.32V32.332L150.08 41.1604C150.08 41.6968 149.262 42.0883 147.615 42.3493C146.884 42.4282 146.354 42.4733 146.043 42.4733C145.225 42.4733 144.811 42.0384 144.811 41.162V38.9081H121.921V41.4954C121.921 42.0383 121.138 42.4443 119.58 42.7279C118.936 42.8149 118.464 42.8584 118.182 42.8584C117.161 42.8584 116.653 42.4024 116.653 41.4954C116.879 38.0736 116.995 35.0804 116.995 32.5076V14.5254C116.995 12.2636 116.827 9.53936 116.487 6.34311Z" fill="white"/>
<path d="M179.141 29.6007V33.9053H188.317V29.6007H179.141ZM165.573 33.9053H174.575V29.6007H165.573V33.9053ZM179.141 39.9933H188.317V35.0362H179.141V39.9933ZM165.573 39.9933H174.575V35.0362H165.573V39.9933ZM160.622 26.2159C162.601 26.7878 164.572 27.5353 166.522 28.4697H186.432C187.114 27.7303 187.737 27.1068 188.303 26.5993C188.752 26.1209 189.15 25.8824 189.492 25.8824C189.854 25.8824 190.716 26.3029 192.079 27.1503C193.666 28.2007 194.457 28.9047 194.457 29.2736C194.457 29.6651 194.146 30.063 193.522 30.4545C193.124 30.7944 192.928 31.194 192.928 31.6434V36.5506C192.928 37.8764 192.986 39.6888 193.094 41.9716C193.094 42.5371 192.377 42.964 190.933 43.2476C190.281 43.3346 189.803 43.3781 189.492 43.3781C188.694 43.3781 188.303 42.9076 188.303 41.9716V41.1678H165.587V41.8057C165.587 42.3712 164.899 42.7981 163.508 43.0816C162.892 43.1606 162.449 43.2057 162.196 43.2057C161.262 43.2057 160.798 42.7417 160.798 41.8073C160.906 40.3655 160.964 38.9075 160.964 37.4447V32.3636C160.964 30.2467 160.848 28.2039 160.622 26.2175V26.2159ZM170.138 23.8171H183.793V19.4255H170.138V23.8171ZM165.231 16.3807C166.992 16.8076 168.776 17.4311 170.588 18.2511H182.88C183.445 17.5406 183.909 16.9607 184.278 16.5112C184.647 16.0843 185.047 15.8732 185.467 15.8732C185.983 15.8732 186.874 16.3372 188.15 17.2716C189.62 18.264 190.36 18.9825 190.36 19.4384C190.36 19.7493 190.064 20.0619 189.469 20.3663C188.933 20.6483 188.607 20.9608 188.491 21.3007V25.6714C188.491 26.1789 187.774 26.5478 186.331 26.7733C185.714 26.8603 185.243 26.9038 184.939 26.9038C184.178 26.9038 183.793 26.4914 183.793 25.6714V25.0334H170.132V25.3734C170.132 25.9098 169.436 26.3078 168.044 26.5623C167.472 26.6783 167.037 26.7282 166.725 26.7282C165.84 26.7282 165.405 26.3223 165.405 25.4958C165.515 24.7064 165.571 23.8139 165.571 22.828V19.9426C165.571 18.9277 165.455 17.7388 165.23 16.3758L165.231 16.3807ZM173.886 3.9356C175.777 4.10959 177.596 4.36251 179.35 4.70405C180.452 4.73304 181.003 5.00047 181.003 5.50794C181.003 5.71093 180.692 5.96386 180.069 6.2764C179.337 6.63888 178.967 7.0513 178.967 7.50883V9.20522H189.202C189.738 8.69775 190.209 8.27083 190.6 7.9293C191.172 7.33484 191.592 7.0384 191.876 7.0384C192.303 7.0384 193.268 7.66187 194.768 8.9088C196.123 10.0172 196.804 10.7937 196.804 11.2496C196.804 11.6121 196.464 11.8586 195.783 11.9665C195.022 11.9665 194.579 12.0245 194.471 12.1405C192.942 13.2199 191.072 14.2783 188.862 15.3303L188.145 14.9888H169.815C167.35 14.9888 165.597 15.0468 164.545 15.1547L163.907 13.4728C165.27 13.7257 167.234 13.8562 169.815 13.8562H182.368C182.477 13.7982 182.919 13.3133 183.679 12.3999C184.584 11.306 185.129 10.7615 185.295 10.7615C185.722 10.7615 186.411 11.3044 187.375 12.3999C188.027 13.1103 188.454 13.6242 188.651 13.9432C189.129 12.7978 189.527 11.6234 189.84 10.4215H162.762C162.733 11.5815 162.654 12.4579 162.509 13.0523C162.256 14.3282 161.798 15.2336 161.154 15.7701C160.785 16.052 160.4 16.197 160.002 16.197C159.097 16.197 158.335 15.9296 157.711 15.3851C157.175 14.9356 156.907 14.2831 156.907 13.4357C156.907 13.0088 157.371 12.4724 158.306 11.8199C159.298 11.1964 160.074 10.4795 160.64 9.66758C161.205 8.96518 161.676 7.84069 162.046 6.31829L162.85 6.52772C162.85 7.4911 162.836 8.38361 162.807 9.20201H174.272V7.67314C174.272 6.45522 174.142 5.2083 173.889 3.93237L173.886 3.9356Z" fill="white"/>
<path d="M200.525 29.783C201.917 30.036 203.896 30.1664 206.468 30.1664H218.065V29.783C218.065 28.3702 217.897 27.1232 217.557 26.0503C218.833 26.2162 220.37 26.4563 222.16 26.7672C223.863 26.9412 224.712 27.2102 224.712 27.5791C224.712 28.0866 224.299 28.4845 223.479 28.7681C222.914 28.934 222.632 29.2756 222.632 29.783V30.1664H231.808C231.945 30.1084 232.432 29.543 233.25 28.47C234.265 27.2231 234.866 26.5997 235.033 26.5997C235.599 26.5997 236.446 27.2086 237.585 28.4265C238.745 29.6445 239.325 30.3904 239.325 30.6659C239.325 31.0863 239.029 31.2958 238.434 31.2958H223.569C225.802 32.8246 228.28 33.97 230.998 34.7385C233.999 35.6149 236.999 36.2239 240 36.5654L239.834 37.6238C238.645 37.9927 237.74 38.8128 237.116 40.0887C236.834 41.0521 236.551 41.5305 236.269 41.5305C235.704 41.5305 234.413 41.0956 232.406 40.2111C230.311 39.2252 228.34 38.0217 226.498 36.6024C224.969 35.2766 223.685 33.8847 222.635 32.4412V42.3344C222.635 42.908 221.953 43.3123 220.584 43.5669C219.961 43.6539 219.519 43.6974 219.265 43.6974C218.351 43.6974 217.902 43.4283 217.902 42.8935C218.01 42.125 218.069 41.5595 218.069 41.1906V33.8057C216.909 34.7691 215.822 35.5601 214.801 36.1836C213.017 37.2565 210.952 38.2054 208.597 39.0254C206.277 39.8809 203.704 40.5978 200.87 41.1922L200.529 40.3013C203.362 39.3089 206.008 38.054 208.473 36.5251C210.85 35.0253 212.829 33.2773 214.416 31.299H206.472C204.015 31.299 202.269 31.357 201.254 31.4649L200.529 29.783H200.525Z" fill="white"/>
<path d="M201.772 15.8668C203.127 16.0924 205.099 16.2084 207.672 16.2084H212.912C212.999 16.1504 213.325 15.7959 213.89 15.1435C214.601 14.3831 215.007 13.998 215.123 13.998C215.521 13.998 216.086 14.3976 216.819 15.187C217.646 16.0054 218.052 16.5064 218.052 16.6723C218.052 17.1428 217.886 17.3828 217.544 17.3828H212.108V22.058C213.724 21.913 215.537 21.7164 217.544 21.4554L217.884 22.0934C215.282 23.5932 213.057 24.6307 211.222 25.1962C209.164 25.8197 207.432 26.2466 206.011 26.4721C205.221 26.5881 204.822 26.7251 204.822 26.8926C204.772 27.0956 204.698 27.3775 204.612 27.7481C204.525 28.3135 204.36 28.5955 204.105 28.5955C203.62 28.5955 203.04 27.5451 202.365 25.4491C202.162 24.8837 201.851 23.9348 201.431 22.6073C203.525 22.5783 205.605 22.4913 207.672 22.3463V17.3812C205.207 17.3812 203.454 17.4392 202.402 17.5487L201.772 15.8668Z" fill="white"/>
<path d="M223.32 3.79047C224.675 4.18195 225.98 4.57987 227.226 4.9794C228.473 5.34188 229.097 5.7398 229.097 6.16833C229.097 6.59686 228.742 6.85623 228.032 6.97223C227.359 7.05922 226.974 7.19616 226.887 7.39915C226.692 7.68269 226.474 7.95011 226.249 8.20304H232.33C232.359 8.20304 232.772 7.76001 233.563 6.88362C234.665 5.64475 235.39 5.02129 235.729 5.02129C236.04 5.02129 236.962 5.70919 238.491 7.10111C239.477 7.9775 239.976 8.52202 239.976 8.74595C239.976 9.16643 239.68 9.37586 239.085 9.37586H229.989C230.953 9.65778 231.663 9.94133 232.121 10.2233C233.136 10.8177 233.65 11.3252 233.65 11.7521C233.65 12.5125 233.476 13.136 233.136 13.6225C232.744 14.043 232.346 14.275 231.947 14.2959C232.2 14.4989 232.475 14.7083 232.759 14.9339C233.832 15.7313 234.368 16.3612 234.368 16.8477C234.368 17.1587 234.028 17.5437 233.353 17.9932C232.672 18.2751 232.332 18.6311 232.332 19.0581V20.9204C232.332 21.5439 232.462 21.9273 232.717 22.0723C232.97 22.2092 233.492 22.2833 234.289 22.2833L235.137 22.1963C235.615 22.1963 235.984 21.7758 236.239 20.9204C236.491 20.073 236.818 18.8986 237.216 17.3971L237.933 17.5711L238.107 19.775C238.107 20.3404 238.36 21.0074 238.868 21.7758C239.607 22.4782 239.976 23.0083 239.976 23.3417C239.976 24.2181 239.425 24.8416 238.317 25.2121C237.041 25.6391 235.7 25.8501 234.286 25.8501C231.763 25.8501 230.344 25.7196 230.031 25.4667C228.952 25.1251 228.415 23.8573 228.415 21.647V16.5078H227.14C226.829 17.8917 226.379 19.0806 225.785 20.073C225.98 20.189 226.141 20.2824 226.249 20.3694C226.785 20.711 227.061 21.0799 227.061 21.4778C227.061 22.3252 226.735 23.0582 226.083 23.6817C225.517 24.4791 224.807 24.8706 223.959 24.8706C223.677 24.8706 223.147 24.4066 222.387 23.4722C221.706 23.8428 220.873 24.1972 219.879 24.5307C218.298 25.0736 216.27 25.4506 213.805 25.6826L213.596 25.0446C215.241 24.5887 216.487 24.1537 217.335 23.7252C218.095 23.3546 218.893 22.8343 219.713 22.1528C219.966 21.9273 220.206 21.6743 220.43 21.3924C219.582 20.595 218.617 19.8926 217.544 19.2691L218.052 18.2477C219.473 18.4217 220.705 18.6037 221.747 18.7987C222 18.0673 222.203 17.2988 222.342 16.5078C221.037 16.5368 219.935 16.5948 219.03 16.6738L218.348 14.9919C219.906 15.2158 221.776 15.3318 223.958 15.3318H227.864C228.372 14.9049 228.784 14.5633 229.097 14.3104C229.408 14.0849 229.677 13.9125 229.901 13.8029C229.706 13.492 229.538 13.0635 229.393 12.527C229.197 11.4476 228.61 10.3956 227.653 9.37424H225.269C224.791 9.88171 224.312 10.3376 223.827 10.7291C222.754 11.6136 221.333 12.5189 219.581 13.4469L219.03 12.9394C220.19 11.4396 221.08 10.0396 221.704 8.74273C222.327 7.35887 222.864 5.70597 223.32 3.78564V3.79047Z" fill="white"/>
<path d="M205.968 3.79102C207.322 4.18249 208.642 4.58041 209.918 4.97995C211.136 5.34242 211.745 5.74034 211.745 6.16887C211.745 6.5974 211.405 6.85678 210.723 6.97277C210.013 7.05976 209.621 7.1967 209.534 7.39969C209.368 7.68323 209.194 7.95066 209.027 8.20359H213.615C213.665 8.20359 214.093 7.76056 214.883 6.88417C215.991 5.6453 216.695 5.02183 217.006 5.02183C217.346 5.02183 218.297 5.70973 219.854 7.10165C220.818 7.97804 221.296 8.52257 221.296 8.7465C221.296 9.16697 221 9.3764 220.405 9.3764H212.041C212.665 9.62933 213.172 9.91287 213.57 10.2238C214.504 10.8183 214.968 11.3982 214.968 11.9637C214.968 12.8981 214.641 13.6665 213.99 14.261C213.57 14.6299 213.056 14.812 212.462 14.812C212.18 14.812 211.925 14.7105 211.701 14.5155C211.506 14.319 211.331 13.8196 211.194 13.0302C211.02 11.9508 210.585 10.7329 209.874 9.37801H208.178C207.496 10.3124 206.742 11.1324 205.924 11.8429C204.59 13.0318 202.85 14.2497 200.698 15.495L200.19 14.9811C201.777 13.1478 202.995 11.416 203.844 9.80655C204.692 8.1472 205.402 6.13826 205.968 3.79102Z" fill="white"/>
<path d="M73.1941 61.2767L72.4756 61.0415C73.1973 59.3531 73.5711 57.85 73.5936 56.5322V51.2691C73.5936 51.1273 73.6645 51.0564 73.8063 51.0564H82.3543C82.5042 51.0564 82.5783 51.1273 82.5783 51.2691V60.4534C82.5702 60.7434 82.4913 60.9593 82.3431 61.1011C81.9661 61.4152 81.1155 61.4426 79.788 61.1832V60.3826C80.8786 60.6725 81.5424 60.7321 81.7776 60.5598C81.8485 60.4969 81.8839 60.3906 81.8839 60.2424V57.8758H78.3397V61.2896H77.6453V57.8758H74.1961C74.0077 59.0841 73.6742 60.2182 73.1957 61.2783L73.1941 61.2767ZM77.6453 57.1799V54.7666H74.2896V56.8979C74.2815 56.9849 74.2735 57.0784 74.2654 57.1799H77.6453ZM77.6453 51.7524H74.383C74.3202 51.7604 74.2896 51.791 74.2896 51.8458V54.0706H77.6453V51.7507V51.7524ZM78.3397 54.0722H81.8839V51.8345C81.8759 51.7797 81.8452 51.7524 81.7889 51.7524H78.3397V54.0722ZM81.8839 57.1815V54.7682H78.3397V57.1815H81.8839Z" fill="white"/>
<path d="M88.4857 52.5529C88.4777 54.6795 88.1522 57.2039 87.5078 60.1247L86.8135 60.0184C87.4579 56.9172 87.7785 54.4104 87.7785 52.4949L88.4857 52.5529ZM90.5816 51.3044V60.0764C90.5816 60.2407 90.5977 60.3519 90.6284 60.4066C90.6992 60.4936 90.8281 60.5355 91.0166 60.5355H94.6205C94.7461 60.5355 94.8476 60.5194 94.9265 60.4888C94.9974 60.4646 95.0474 60.4179 95.0796 60.347C95.2439 60.0796 95.3502 59.1807 95.397 57.6502L96.08 57.8145C96.0961 59.5576 95.9624 60.5935 95.6805 60.9238C95.5001 61.1284 95.2214 61.2299 94.8444 61.2299H90.7121C90.5156 61.2299 90.3545 61.1831 90.2288 61.0881C89.9775 60.9077 89.8631 60.6048 89.8873 60.1811V51.3028H90.5816V51.3044ZM92.6421 50.6213C93.2301 52.4901 93.6426 54.789 93.8778 57.5213L93.1834 57.6389C92.8934 54.7423 92.4842 52.4547 91.9591 50.7744L92.6421 50.6213ZM96.3636 52.0342C97.0773 54.1221 97.6041 56.7013 97.9408 59.7703L97.2464 59.8992C96.8388 56.6498 96.3168 54.0818 95.6805 52.1985L96.3636 52.0342Z" fill="white"/>
<path d="M102.507 60.0407V59.3463H107.169V58.2041H103.766C103.436 58.5263 103.096 58.7921 102.742 59.0048L102.412 58.4393C103.024 58.0398 103.543 57.521 103.966 56.8847L104.52 57.3084C104.466 57.3712 104.414 57.4373 104.367 57.5081H107.169V56.4948L103.86 56.7429L103.683 56.0598L104.907 55.989C105.284 55.6039 105.661 55.1963 106.038 54.7646H102.988C102.942 54.7646 102.917 54.7887 102.917 54.8355V56.2725H102.223V54.2007C102.231 54.1137 102.275 54.0718 102.352 54.0718H106.497C105.735 53.6095 104.986 53.2599 104.248 53.0231C104.311 52.7959 104.377 52.572 104.448 52.3529C104.723 52.3851 105.084 52.5301 105.531 52.7879C105.93 52.4979 106.334 52.1837 106.744 51.8454H102.175V51.1511H107.167V50.4438H107.862V51.1511H112.783V51.8454H107.815C107.407 52.1982 106.858 52.6268 106.167 53.1294C106.481 53.2937 106.831 53.4871 107.216 53.7062C108.298 53.1568 109.162 52.6429 109.806 52.1644L110.172 52.7653C109.568 53.2051 108.873 53.6401 108.087 54.0718H112.479L113.115 54.3892C113.044 54.9225 112.888 55.5588 112.645 56.2967C112.432 56.2177 112.216 56.1404 111.997 56.0615C112.17 55.4799 112.268 55.0836 112.292 54.8725C112.284 54.8016 112.252 54.7662 112.197 54.7662H106.934C106.658 55.1029 106.33 55.4847 105.945 55.9084L109.536 55.6619C109.41 55.5604 109.295 55.4734 109.194 55.4025L109.653 54.8612C110.194 55.2463 110.784 55.7844 111.419 56.4739L110.924 56.9797C110.665 56.7123 110.425 56.4739 110.206 56.2612L107.863 56.4384V57.5098H112.266V58.2041H107.863V59.3463H112.878V60.0407H107.863V61.5711H107.169V60.0407H102.507Z" fill="white"/>
<path d="M123.616 52.9769H119.165C119.11 52.9769 119.082 53.0043 119.082 53.0591V54.6362H122.356C122.52 54.6362 122.607 54.6765 122.615 54.7538V58.4624C122.607 59.0504 122.427 59.4677 122.074 59.7109C121.713 59.9155 120.962 59.9107 119.825 59.6997L119.778 58.9699C120.751 59.2212 121.38 59.2647 121.662 59.0988C121.741 59.052 121.803 58.9699 121.85 58.8523C121.897 58.7508 121.921 58.6606 121.921 58.5816V55.4256C121.921 55.3628 121.886 55.3322 121.815 55.3322H119.082V56.0507C119.082 58.2256 118.73 60.0348 118.022 61.4782L117.351 61.2317C117.766 60.3135 118.045 59.45 118.187 58.6412C118.312 57.8873 118.378 56.9529 118.386 55.8397V52.4726C118.386 52.347 118.449 52.2842 118.575 52.2842H123.508C123.421 51.6639 123.363 51.0904 123.331 50.5652L124.025 50.6006C124.072 51.15 124.135 51.7122 124.214 52.2842H128.217V52.9785H124.32C124.618 54.7845 124.992 56.2795 125.438 57.4652C125.894 56.7273 126.326 55.5658 126.733 53.9806L127.405 54.1449C127.028 55.801 126.475 57.1591 125.744 58.2191C126.074 58.9731 126.408 59.6239 126.744 60.1733C126.964 60.5261 127.113 60.7033 127.192 60.7033C127.286 60.7033 127.373 60.5857 127.452 60.3505C127.601 59.8092 127.714 59.1374 127.793 58.3367L128.476 58.5252C128.233 60.1652 127.966 61.1431 127.676 61.4573C127.597 61.5362 127.482 61.5749 127.334 61.5749C127.129 61.5588 126.941 61.4653 126.769 61.293C126.242 60.7114 125.744 59.8882 125.274 58.82C124.566 59.7077 123.55 60.626 122.224 61.5749L121.658 61.069C122.686 60.3618 123.617 59.5966 124.449 58.7733C124.629 58.5542 124.806 58.3367 124.979 58.1257C124.397 56.6339 123.943 54.9198 123.613 52.9801L123.616 52.9769ZM125.7 50.4331C126.086 50.6844 126.504 51.026 126.96 51.4577L126.501 51.999C126.023 51.5286 125.613 51.1951 125.277 50.9986L125.7 50.4331Z" fill="white"/>
<path d="M133.499 55.2903C133.715 55.2935 133.902 55.3692 134.06 55.5158C134.215 55.6769 134.29 55.8638 134.29 56.0765C134.29 56.2891 134.213 56.4744 134.06 56.6306C133.899 56.7885 133.712 56.8675 133.499 56.8675C133.287 56.8675 133.101 56.7885 132.945 56.6306C132.791 56.4728 132.715 56.2875 132.715 56.0765C132.715 55.8654 132.792 55.6737 132.945 55.5158C133.103 55.366 133.288 55.2903 133.499 55.2903Z" fill="white"/>
<path d="M144.001 55.4965C143.703 56.4534 143.212 57.4281 142.529 58.4172C141.689 59.5321 140.523 60.5019 139.031 61.3251L138.525 60.7484C138.98 60.5293 139.4 60.2973 139.785 60.054C141.967 58.5864 143.239 56.542 143.6 53.9193H138.807V53.2249H143.658C143.674 52.9656 143.682 52.703 143.682 52.4355V50.6812H144.423V52.4355C144.415 52.6869 144.407 52.935 144.399 53.1766V53.2233H149.274V53.9177H144.423C144.494 55.0083 144.847 56.0652 145.483 57.0849C146.377 58.4591 147.724 59.7141 149.522 60.8531L148.957 61.359C148.784 61.2333 148.623 61.1189 148.473 61.0174C146.063 59.3146 144.572 57.4732 144 55.4949L144.001 55.4965Z" fill="white"/>
<path d="M163.403 61.2658H153.937C153.819 61.2658 153.76 61.203 153.76 61.0773V51.0922C153.76 50.9746 153.818 50.915 153.937 50.915H163.403C163.529 50.915 163.592 50.973 163.592 51.0922V61.0773C163.592 61.203 163.529 61.2658 163.403 61.2658ZM154.478 51.611C154.462 51.6191 154.454 51.6271 154.454 51.6352V60.536C154.462 60.5602 154.47 60.5715 154.478 60.5715H162.862C162.886 60.5715 162.897 60.5602 162.897 60.536V51.6352C162.897 51.619 162.886 51.611 162.862 51.611H154.478ZM161.944 56.8855L162.379 57.4268C161.923 57.8666 161.343 58.3257 160.636 58.8042C161.319 59.2907 161.978 59.6435 162.614 59.8642L162.214 60.4651C161.994 60.3781 161.799 60.296 161.626 60.2186C160.276 59.6226 159.279 58.606 158.636 57.169H158.13V60.3475H157.436V57.8746C156.652 58.6205 155.901 59.1393 155.187 59.4292L154.763 58.8412C155.666 58.4417 156.482 57.8843 157.212 57.169H155.74C155.677 57.169 155.645 57.1335 155.645 57.0627V54.92C155.653 54.8572 155.683 54.825 155.74 54.825H161.509C161.58 54.833 161.615 54.8652 161.615 54.92V57.0627C161.615 57.1335 161.58 57.169 161.509 57.169H159.413C159.585 57.4751 159.766 57.757 159.954 58.0164C160.025 58.1034 160.088 58.192 160.143 58.287C160.911 57.7619 161.512 57.2947 161.944 56.8855ZM158.282 53.1173H155.221V52.4229H158.282V51.764H158.976V52.4229H162.061V53.1173H158.976V53.694H162.343V54.3884H154.984V53.694H158.28V53.1173H158.282ZM156.363 55.5193C156.347 55.5274 156.339 55.5354 156.339 55.5435V56.4376C156.347 56.4618 156.355 56.473 156.363 56.473H160.885C160.909 56.473 160.921 56.4618 160.921 56.4376V55.5435C160.921 55.5274 160.909 55.5193 160.885 55.5193H156.363Z" fill="white"/>
<path d="M173.502 54.6955C173.204 55.9907 172.666 57.2393 171.889 58.4395C171.042 59.688 169.864 60.7755 168.356 61.7018L167.826 61.1476C168.736 60.6691 169.526 60.0876 170.193 59.4045C172.116 57.5438 173.078 54.9855 173.078 51.728V50.5391H173.819V51.728C173.819 51.8311 173.816 51.9406 173.808 52.0582C173.8 52.1372 173.8 52.2161 173.808 52.2935V52.3998C173.855 53.31 174.199 54.5698 174.844 56.1792C175.817 57.9691 177.246 59.6284 179.129 61.1605L178.435 61.6776C177.806 61.1041 177.268 60.595 176.822 60.1472C175.111 58.3976 174.004 56.5804 173.502 54.6955Z" fill="white"/>
<path d="M187.487 61.172H183.461C183.398 61.172 183.366 61.1366 183.366 61.0657V52.3292C183.374 52.2663 183.405 52.2341 183.461 52.2341H184.792C184.94 51.8894 185.122 51.3593 185.333 50.644L185.981 50.8792C185.926 51.0371 185.836 51.3078 185.71 51.6912C185.639 51.8797 185.577 52.0601 185.522 52.2325H187.487C187.558 52.2406 187.594 52.2712 187.594 52.3276V61.0641C187.594 61.135 187.558 61.1704 187.487 61.1704V61.172ZM186.899 56.144V52.9526C186.899 52.9365 186.888 52.9285 186.864 52.9285H184.085C184.069 52.9365 184.061 52.9446 184.061 52.9526V56.144H186.898H186.899ZM184.062 56.8384V60.4422C184.07 60.4664 184.078 60.4777 184.086 60.4777H186.865C186.89 60.4777 186.901 60.4664 186.901 60.4422V56.8384H184.064H184.062ZM188.549 54.5427L187.89 54.272C188.612 53.1653 189.043 51.9876 189.185 50.7391L189.868 50.8341C189.805 51.2192 189.735 51.5752 189.656 51.9055H193.293C193.348 51.9135 193.392 51.9216 193.422 51.9296C193.477 51.9618 193.509 52.0037 193.516 52.0585C193.562 52.334 193.551 53.9821 193.48 57.0043C193.425 58.4091 193.3 59.4096 193.103 60.0073C192.899 60.5969 192.617 60.9884 192.256 61.1849C191.66 61.5377 190.619 61.4668 189.135 60.9723L189.171 60.207C190.6 60.6855 191.513 60.7838 191.914 60.5018C192.095 60.3842 192.256 60.1329 192.398 59.7479C192.586 59.2291 192.704 58.2609 192.75 56.84C192.821 54.156 192.829 52.7496 192.775 52.624C192.758 52.6079 192.736 52.5998 192.704 52.5998H189.466C189.143 53.4633 188.837 54.1109 188.547 54.5427H188.549ZM190.186 54.2608C190.861 55.9797 191.32 57.3024 191.563 58.2287L190.904 58.393C190.574 57.1848 190.115 55.8814 189.527 54.4831L190.186 54.2592V54.2608Z" fill="white"/>
<path d="M198.475 61.2409L197.78 61.0637C198.573 59.4542 198.966 57.7901 198.958 56.0711H199.652C199.614 56.9105 199.535 57.6531 199.417 58.2959C199.77 58.9081 200.229 59.3914 200.794 59.7442V54.858H198.062V54.1637H200.794V52.5978H198.488V51.9034H200.794V50.4438H201.489V51.9034H203.254V52.5978H201.489V54.1637H203.443V54.858H201.489V56.5657H203.254V57.26H201.489V60.0858C202.069 60.2904 203.055 60.4031 204.443 60.4273H208.882L208.705 61.1216H204.701C203.846 61.0975 203.095 61.0588 202.452 61.004C202.365 60.9879 202.288 60.9799 202.217 60.9799C200.93 60.7672 199.933 60.1679 199.227 59.1788C199.014 59.9875 198.763 60.6738 198.473 61.2392L198.475 61.2409ZM204.208 51.056H208.282C208.4 51.0641 208.46 51.1189 208.46 51.2203V55.1416C208.46 55.2672 208.397 55.33 208.271 55.33H204.738V58.2379C204.738 58.4731 204.774 58.631 204.845 58.7084C204.94 58.8098 205.049 58.8662 205.175 58.8727H207.413C207.64 58.8646 207.817 58.7857 207.943 58.6375C208.068 58.449 208.126 57.919 208.12 57.0474L208.838 57.1424C208.792 58.2025 208.661 58.8727 208.45 59.1562C208.231 59.4317 207.98 59.5686 207.696 59.5686H205.046C204.709 59.5686 204.445 59.4736 204.257 59.2867C204.115 59.153 204.044 58.921 204.044 58.5924V51.222C204.052 51.1124 204.107 51.0576 204.208 51.0576V51.056ZM204.738 54.6357H207.682C207.736 54.6357 207.764 54.6083 207.764 54.5535V51.8213C207.764 51.7745 207.736 51.7504 207.682 51.7504H204.809C204.762 51.7504 204.738 51.7745 204.738 51.8213V54.6357Z" fill="white"/>
<path d="M218.606 56.0373C216.862 57.4195 215.239 58.2975 213.731 58.6745L213.4 58.0382C215.237 57.513 216.874 56.6366 218.311 55.4122C218.169 55.1931 218.005 54.9772 217.816 54.7646C216.357 55.699 214.974 56.2951 213.671 56.5544L213.365 55.9068C215.045 55.5073 216.532 54.858 217.827 53.9639H214.718V53.2696H221.982V53.9639H218.957C218.744 54.1137 218.552 54.2507 218.38 54.3763C218.757 54.8161 219.055 55.2994 219.274 55.8246C219.933 57.049 220.545 57.9592 221.111 58.5553C221.832 59.277 222.786 60.0149 223.972 60.7688L223.431 61.323C221.837 60.3419 220.613 59.2239 219.757 57.9673C219.883 58.8775 219.757 59.7104 219.38 60.4643C219.153 60.967 218.812 61.3037 218.356 61.4761C217.948 61.6259 217.249 61.5357 216.26 61.2054L216.295 60.4756C217.167 60.7576 217.755 60.8526 218.061 60.7576C218.351 60.6561 218.583 60.4128 218.755 60.0278C219.061 59.4398 219.176 58.7567 219.097 57.9786C219.089 57.9399 219.086 57.9077 219.086 57.8851C217.069 59.4559 215.189 60.4402 213.446 60.8397L213.115 60.2034C215.353 59.5751 217.307 58.5392 218.979 57.0957C218.878 56.6946 218.752 56.3418 218.602 56.0357L218.606 56.0373ZM218.064 50.4438H218.759V51.4797H223.279L223.915 51.7971C223.814 52.4415 223.605 53.2212 223.292 54.1395C223.079 54.0541 222.868 53.9639 222.656 53.8689C222.875 53.1697 223.021 52.6413 223.091 52.2788C223.083 52.2079 223.052 52.1725 222.997 52.1725H213.979C213.932 52.1725 213.908 52.1966 213.908 52.2433V54.0574H213.214V51.6086C213.222 51.5216 213.265 51.4797 213.342 51.4797H218.064V50.4438ZM222.644 55.0352C222.18 55.5765 221.557 56.1533 220.772 56.7655L220.313 56.2467C221.13 55.5798 221.742 55.0062 222.15 54.5278L222.644 55.0336V55.0352Z" fill="white"/>
<path d="M239.03 51.6101H229.977C229.922 51.6101 229.894 51.6375 229.894 51.6923V56.1902C229.878 58.0429 229.537 59.6523 228.87 61.0184L228.211 60.7478C228.604 59.931 228.87 59.1658 229.012 58.4521C229.129 57.7932 229.192 56.9684 229.2 55.9792V51.1043C229.2 50.9786 229.263 50.9158 229.389 50.9158H239.032V51.6101H239.03ZM232.543 53.6819H230.753V52.9875H232.543V52.1401H233.237V52.9875H236.405V52.1869H237.099V52.9875H239.006V53.6819H237.099V55.1544H239.43V55.8487H230.423V55.1544H232.543V53.6819ZM238.219 61.2182H231.414C231.351 61.2182 231.32 61.1828 231.32 61.1119V56.8491C231.328 56.7863 231.359 56.7557 231.414 56.7557H238.219C238.289 56.7638 238.325 56.7944 238.325 56.8491V61.1119C238.325 61.1828 238.289 61.2182 238.219 61.2182ZM237.631 58.639V57.4726C237.631 57.4565 237.619 57.4484 237.595 57.4484H232.037C232.021 57.4565 232.013 57.4645 232.013 57.4726V58.639H237.629H237.631ZM232.015 59.3333V60.4868C232.023 60.511 232.031 60.5223 232.039 60.5223H237.597C237.621 60.5223 237.632 60.511 237.632 60.4868V59.3333H232.016H232.015ZM236.406 55.1527V53.6803H233.239V55.1527H236.406Z" fill="white"/>
</svg>
