<?xml version="1.0" encoding="utf-8"?>
<!-- Generator: Adobe Illustrator 27.0.0, SVG Export Plug-In . SVG Version: 6.00 Build 0)  -->
<svg version="1.1" id="圖層_1" xmlns="http://www.w3.org/2000/svg" xmlns:xlink="http://www.w3.org/1999/xlink" x="0px" y="0px"
	 viewBox="0 0 240 65" style="enable-background:new 0 0 240 65;" xml:space="preserve">
<style type="text/css">
	.st0{fill:#FFFFFF;}
</style>
<path class="st0" d="M54.3,32.5c1.2-1.7,2.7-4.6,1-9.2c-1-2.7-0.8-4.1-0.1-5.5l0.6-1.3l-1.5-0.2c-1.5-0.2-2.8-0.7-4.7-2.9
	c-3.2-3.8-6.5-3.9-8.5-3.7c-0.9-1.8-2.6-4.6-7.5-5.5c-2.8-0.5-3.9-1.4-4.8-2.6L28,0.4l-0.9,1.2c-0.9,1.2-2,2.1-4.8,2.6
	c-4.9,0.9-6.6,3.7-7.5,5.5c-2-0.2-5.3,0-8.5,3.7c-1.8,2.2-3.1,2.7-4.7,2.9l-1.5,0.2l0.6,1.3c0.6,1.4,0.8,2.8-0.1,5.5
	c-1.7,4.6-0.1,7.6,1,9.2c-1.2,1.7-2.7,4.6-1,9.2c1,2.7,0.8,4.1,0.1,5.5l-0.6,1.3l1.5,0.2c1.5,0.2,2.8,0.7,4.7,2.9
	c3.2,3.8,6.5,3.9,8.5,3.7c0.9,1.8,2.6,4.6,7.5,5.5c2.8,0.5,3.9,1.4,4.8,2.6l0.9,1.2l0.9-1.2c0.9-1.2,2-2.1,4.8-2.6
	c4.9-0.9,6.6-3.7,7.5-5.5c2,0.2,5.3,0,8.5-3.7c1.8-2.2,3.1-2.7,4.7-2.9l1.5-0.2l-0.6-1.3c-0.6-1.4-0.8-2.8,0.1-5.5
	C57,37.1,55.5,34.2,54.3,32.5L54.3,32.5z M45.7,12.8c0.8,0.5,1.5,1.1,2.3,2c1.6,1.9,3,2.9,4.8,3.4c-0.4,1.4-0.3,2.8,0.1,4.4h-7.2
	V12.8z M27.3,39V40H11.2v-7.6H9.3h-5l-0.4-0.5c-0.9-1.2-1.8-2.6-1.8-4.6h11.4c0.7,3.3,2.6,6.2,5.1,8.3C18.6,35.6,22.4,38.7,27.3,39
	L27.3,39z M21.4,35.2l5.9-3.1v5C25.1,37,23.1,36.3,21.4,35.2z M3.1,34.3h6.2V40H2.4C1.8,37.4,2.3,35.7,3.1,34.3z M3.4,46.6v0.2
	c0,0-0.1,0-0.1,0c0.4-1.5,0.3-3-0.2-4.9h6.3v4.8L3.4,46.6L3.4,46.6z M8,50.2C7.5,49.5,7,49,6.4,48.5h2.9v2.9
	C8.9,51.1,8.5,50.7,8,50.2z M18.9,57c-1.2-1-1.8-2.2-2.3-3.3L16.2,53l-0.8,0.1c-1.3,0.2-2.7,0.2-4.2-0.4v-4.1h7.7V57z M18.9,46.6
	h-7.7v-4.8h7.7V46.6z M27.3,60.5c-1.2-0.9-2.6-1.5-4.6-1.8c-0.7-0.1-1.4-0.3-2-0.5v-9.6h6.5V60.5L27.3,60.5z M27.3,46.6h-6.5v-4.8
	h6.5V46.6z M20.9,21.1v2.1h6.4v1.1l-7.5,3.9l1,1.8l6.5-3.4v3.1l-7.8,4.1c-2.7-2.4-4.5-5.9-4.5-9.9c0-2.1,0.5-4.1,1.4-5.9v3.4h2.1
	v-2.9h19.6v3.3h2.1v-3.4c0.7,1.7,1.2,3.5,1.2,5.4c0,3.9-1.7,7.4-4.4,9.8l-7.6-4l4.7-2.2l-0.9-1.9l-4.1,1.9v-4.5h6.6v-2.1L20.9,21.1
	L20.9,21.1z M17.3,16.6c2.4-3.5,6.4-5.8,10.9-5.8c4.5,0,8.5,2.3,10.9,5.8H17.3z M35.2,35.2c-1.8,1.1-3.8,1.8-6,1.9V32L35.2,35.2z
	 M43.8,53c-1.1,0.3-2.2,0.2-3.2,0.1L39.9,53l-0.3,0.7c-0.9,2-2.1,4.2-6.2,5c-1.7,0.3-3,0.8-4.1,1.5v-5.4h6.4v-1.9h-6.4v-4.3h14.6V53
	z M43.8,46.6H29.2v-4.8h14.6V46.6z M43.8,40H29.2V39c2.6-0.2,5.1-1,7.2-2.4l1.4-1c3.3-2.8,5.5-6.9,5.5-11.6
	c0-8.3-6.8-15.1-15.1-15.1c-8.3,0-15.1,6.8-15.1,15.1c0,0.5,0,0.9,0.1,1.4H2.3c0.1-0.4,0.2-0.9,0.4-1.4c0.8-2.3,1-4.1,0.5-5.8
	C5,17.7,6.5,16.7,8,14.8c2.7-3.2,5.2-3.2,7.4-2.9l0.8,0.1l0.3-0.7c0.9-2,2.1-4.2,6.2-5c2.4-0.4,4-1.2,5.3-2.4c1.3,1.3,2.9,2,5.3,2.4
	c4.1,0.7,5.4,2.9,6.2,5l0.3,0.7l0.8-0.1c1-0.1,2.1-0.2,3.2,0.1L43.8,40L43.8,40z M48.1,50.2c-0.8,0.9-1.6,1.6-2.3,2v-3.7h3.9
	C49.1,49,48.6,49.5,48.1,50.2z M52.8,46.6h-7v-4.8h7.3C52.5,43.7,52.4,45.2,52.8,46.6z M53.7,40h-7.9V24.5h7.8
	c1.1,3.6-0.1,5.7-1.4,7.3l-0.5,0.6h-3.6v1.9H53C53.8,35.8,54.3,37.5,53.7,40z"/>
<path class="st0" d="M33.1,12.3h-9.4v2.1h9.4V12.3z"/>
<g>
	<path class="st0" d="M106.3,30.5c-0.3,0.3-0.7,0.5-1.6,0.3c-2.5,1.1-6,2.3-9.7,3.3c2.7,5.7,8.3,8.9,14.1,10.7l-0.1,0.5
		c-1.9,0.4-3.3,1.9-4,4.2c-5.4-3.3-9-7.7-11-15.1c-0.9,0.3-1.8,0.5-2.6,0.6c3.2,5.9,2.9,12.7,0.7,15.4c-1.1,1.3-3.2,1.8-6.2,1.8
		c0-1.4-0.4-2.4-1-3.1c-0.5-0.5-1.9-1.1-3.5-1.6l0-0.5c1.7,0.2,4.5,0.3,5.5,0.3c0.6,0,1-0.1,1.2-0.5c0.6-0.9,1-2.6,1-4.8
		c-5,3.2-11.8,6-18.5,7.4l-0.3-0.6c7-2.5,14.1-7.5,18.1-12.7c-0.1-0.3-0.2-0.7-0.3-1.1c-4.3,2.8-10.5,5.6-16.4,7.2l-0.3-0.5
		c5.4-2.5,11.3-7.2,14.6-11.4l-0.3-0.5c-3.9,2.3-8.7,4.1-13.7,5.3l-0.3-0.5c5-2.3,9.7-5.8,12.8-9h-8.1l-0.3-1.2h20.1l2.6-3.3
		c0,0,1.6,1.3,3.2,2.5c0.2-1.2,0.3-2.8,0.5-4.1H76.4c0.3,2.9-0.8,5-2.3,5.9c-1.3,0.8-3.3,0.5-3.9-1.1c-0.5-1.5,0.4-2.6,1.6-3.2
		c1.5-0.8,3.1-2.9,3-5.2h0.6c0.3,0.8,0.5,1.6,0.7,2.4h12.6c-0.3-0.1-0.5-0.2-0.8-0.4c-0.2-1.9-1.6-3.9-2.9-5l0.3-0.3
		c8.5-0.5,8.2,4.5,5.6,5.6h11.2l2.5-2.5l4.4,4.2c-0.3,0.4-0.8,0.5-1.6,0.5c-1.2,1.1-3.3,2.7-4.9,3.6c0.4,0.3,0.7,0.6,1,0.9
		c-0.1,0.5-0.5,0.7-1.1,0.7h-11c-1.3,1.3-2.9,2.5-4.7,3.6c1.8,1.4,3.2,3,4.2,4.7c3.8-2.3,8.1-5.5,10.3-7.6L106.3,30.5z"/>
	<path class="st0" d="M151.6,18.4c-0.3,0.4-0.8,0.7-1.7,0.9v30.1c-0.1,0.4-2.4,1.5-4.2,1.5h-0.8v-3.4h-23.5v2c0,0.6-1.9,1.8-4,1.8
		h-0.8V15.2l5.3,2.2h22.7l2.4-2.7L151.6,18.4z M121.4,18.5v13.1h9.1V18.5H121.4z M121.4,46.3h9.1V32.8h-9.1V46.3z M135.4,18.5v13.1
		h9.5V18.5H135.4z M144.9,46.3V32.8h-9.5v13.6H144.9z"/>
	<path class="st0" d="M172.5,30.6c-0.3,0.5-0.7,0.6-1.6,0.7c-0.6,4.3-1.7,8.4-3.8,12c4.6,2.5,10.8,3,19.5,3c2.2,0,7.3,0,9.9,0v0.5
		c-1.9,0.4-2.9,2.1-3,4.1h-7.3c-9.7,0-16.3-1-21-5.1c-2,2.4-4.6,4.6-8.2,6.3l-0.3-0.5c2.9-2.2,5-4.9,6.4-8c-1.9-2.6-3.4-6-4.6-10.5
		l0.5-0.3c1.3,3.7,3,6.3,5.2,8.3c1.2-3.3,1.8-6.8,2.1-10.5h-2.5l-1.5,1.5l-4.1-2.6c0.4-0.3,0.9-0.7,1.5-0.9
		c1.5-2.8,3.6-7.5,4.7-10.4h-7l-0.4-1.2h7.3l2.1-2.1l4.2,3.8c-0.3,0.4-1,0.6-1.8,0.7c-1.1,2.6-3.3,7.1-4.8,10.1h1.8l2.3-2.4
		L172.5,30.6z M193.7,19.6c0,0,2.3,2.3,3.5,3.8c-0.1,0.5-0.5,0.7-1.1,0.7h-4.7v5.8c0,0.3-2.3,1.1-3.8,1.1h-0.7v-1.4h-3.7v4.3h4
		l2.4-3.1c0,0,2.7,2.1,4.3,3.6c-0.1,0.5-0.5,0.7-1.1,0.7h-9.5v4.4h5l2.6-3.3c0,0,3,2.2,4.9,3.9c-0.1,0.5-0.6,0.7-1.2,0.7h-11.4v3.9
		c0,0.4-1.9,1.3-3.8,1.3h-0.9v-5.2h-8.6l-0.3-1.2h8.9V35h-6.6l-0.3-1.2h7v-4.3h-6.1l-0.4-1.2h6.5v-4.3h-9.2l-0.3-1.2h9.6v-4.2h-6.6
		l-0.4-1.2h6.9v-4.6l6.3,0.6c-0.1,0.6-0.4,1.1-1.6,1.2v2.8h3.3l2.1-2.3l4.5,3.4c-0.3,0.3-0.8,0.7-1.6,0.8v3.5h0.3L193.7,19.6z
		 M183.1,22.9h3.7v-4.2h-3.7V22.9z M186.8,24.1h-3.7v4.3h3.7V24.1z"/>
	<path class="st0" d="M215.3,18.2c0,0,2.4,1.9,3.9,3.3c-0.1,0.5-0.5,0.7-1.1,0.7h-17l-0.3-1.2h12.5L215.3,18.2z M224.5,19.1
		c0,3.4-0.8,9.1-7.8,12.4c0.3,0.3,0.5,0.5,0.8,0.8c-0.1,0.5-0.5,0.7-1.1,0.7h-13.5l-0.3-1.2h9.2l2-2.6c0,0,1.2,0.9,2.4,1.9
		c3.5-3.7,4-8.2,4-11.9v-5.2l5.2,1.9h3.6l2.2-2.4l4.1,3.4c-0.3,0.3-0.8,0.5-1.5,0.6v6.9c0,0.4,0.1,0.6,0.7,0.6h1.1h1.1
		c0.3,0,0.7,0,0.9,0c0.3,0,0.7-0.1,1-0.2h0.4l0.2,0c1,0.5,1.4,0.9,1.4,1.8c0,1.7-1.4,2.6-5.5,2.6h-2c-3.2,0-3.5-0.9-3.5-3.6V17h-4.7
		V19.1z M211.7,26.3l2-2.6c0,0,2.3,1.8,3.7,3.2c-0.1,0.5-0.5,0.7-1.1,0.7h-13.4l-0.3-1.2H211.7z M212.1,50.1v-2.3h-4.7v2.5
		c0,0.4-1.8,1.4-3.7,1.4H203V35.4l4.5,1.8h4.2l2-2.1l4.3,3.2c-0.3,0.3-0.8,0.6-1.6,0.8v9.7c0,0.3-2.1,1.3-3.6,1.3H212.1z
		 M205.3,13.4c11.1,0.5,7.1,8.9,2.6,6c-0.3-2.1-1.7-4.4-2.9-5.8L205.3,13.4z M212.1,46.6v-8.2h-4.7v8.2H212.1z M237.8,33.5
		c-0.3,0.4-0.8,0.5-1.8,0.6c-1.5,3.6-3.5,6.7-6.2,9.4c3.1,1.7,6.7,2.9,10.5,3.6l0,0.5c-1.9,0.4-3.4,1.9-4,4.2
		c-3.8-1.4-7-3.2-9.5-5.6c-3.6,2.7-8.2,4.7-13.9,6l-0.3-0.5c4.9-1.9,8.9-4.5,12-7.8c-2-2.7-3.5-6-4.5-10.4h-2l-0.4-1.2h12.9l2.7-2.6
		L237.8,33.5z M221,33.4c1.3,3.4,3.2,6,5.7,8c1.8-2.4,3.2-5.1,4.2-8H221z"/>
</g>
</svg>
