<svg width="140" height="110" viewBox="0 0 140 110" fill="none" xmlns="http://www.w3.org/2000/svg">
<path d="M91.7075 26.4767C92.6585 25.1133 93.9288 22.6938 92.5495 18.8603C91.7567 16.6575 91.9163 15.5003 92.4311 14.3497L92.9286 13.239L91.7181 13.114C90.4638 12.9836 89.3824 12.5447 87.8713 10.7556C85.2416 7.64306 82.5094 7.53532 80.8547 7.67632C80.1484 6.17058 78.6892 3.86011 74.6788 3.13916C72.375 2.72416 71.4532 2.00853 70.7136 0.985644L69.9994 0L69.2864 0.985644C68.5468 2.00853 67.625 2.72416 65.3199 3.13916C61.3108 3.86011 59.8503 6.17191 59.1453 7.67632C57.4893 7.53399 54.7571 7.64439 52.1287 10.7556C50.6177 12.5434 49.5363 12.9836 48.2806 13.114L47.0702 13.239L47.5676 14.3497C48.0824 15.5016 48.2434 16.6575 47.4493 18.8603C46.0699 22.6938 47.3402 25.1133 48.2912 26.4767C47.3402 27.8401 46.0686 30.2597 47.4493 34.0932C48.242 36.2959 48.0824 37.4518 47.5676 38.6037L47.0715 39.7144L48.2819 39.8394C49.5376 39.9698 50.619 40.4087 52.1301 42.1965C54.7598 45.309 57.4919 45.4181 59.1466 45.2758C59.8516 46.7815 61.3121 49.092 65.3225 49.8129C67.6264 50.2279 68.5482 50.9436 69.2877 51.9664L70.0007 52.9521L70.715 51.9664C71.4545 50.9449 72.3763 50.2279 74.6802 49.8129C78.6892 49.092 80.1498 46.7815 80.8561 45.2758C82.5095 45.4168 85.2429 45.309 87.8726 42.1965C89.3837 40.4087 90.4651 39.9685 91.7194 39.8394L92.9299 39.7144L92.4324 38.6037C91.9163 37.4518 91.7567 36.2959 92.5508 34.0932C93.9302 30.2597 92.6599 27.8401 91.7088 26.4767H91.7075ZM84.6084 10.2049C85.2336 10.5827 85.8747 11.1227 86.5239 11.8916C87.8234 13.4292 89.0166 14.2872 90.4478 14.6689C90.1445 15.7969 90.1725 16.9475 90.5329 18.3136H84.6084V10.2049ZM69.3729 31.8585V32.642H56.1139V26.3956H54.5536H50.4168L50.083 25.95C49.35 24.9696 48.6291 23.8204 48.5985 22.1803H57.9881C58.6039 24.9204 60.1203 27.32 62.2153 29.0479C62.2153 29.0479 65.3744 31.5619 69.3702 31.8585H69.3729ZM64.4872 28.722L69.3729 26.1508V30.2783C67.5918 30.1533 65.9291 29.6012 64.4872 28.722ZM49.4312 27.9678H54.5549V32.642H48.8393C48.2992 30.5603 48.7475 29.1211 49.4312 27.9678ZM49.6187 38.1448V38.3044C49.5948 38.2978 49.5722 38.2898 49.5469 38.2832C49.8821 37.0395 49.8143 35.7692 49.3421 34.2129H54.5536V38.1435H49.6174L49.6187 38.1448ZM53.4722 41.0605C53.0279 40.5351 52.597 40.0922 52.1647 39.7171H54.5549V42.1446C54.1971 41.8453 53.8367 41.4915 53.4722 41.0605ZM62.4308 46.7456C61.4265 45.9462 60.9078 44.9392 60.4981 43.9855L60.2387 43.3803L59.5842 43.4588C58.5215 43.5851 57.3509 43.6344 56.1139 43.1156V39.7171H62.4308V46.7456ZM62.4308 38.1448H56.1139V34.2142H62.4308V38.1448ZM69.4088 49.5722C68.4537 48.8353 67.2592 48.3737 65.6311 48.0811C65.0139 47.9707 64.4766 47.8177 64.003 47.6341V39.7184H69.4088V49.5735V49.5722ZM69.4088 38.1448H64.003V34.2142H69.4088V38.1448ZM64.0695 17.0499V18.7658H69.3729V19.6876L63.2036 22.9186L64.0004 24.4389L69.3729 21.6243V24.2115L62.9549 27.5887C60.6963 25.5961 59.269 22.6805 59.269 19.4309C59.269 17.6937 59.6787 16.0523 60.4036 14.5944V17.4383H62.1195V15.0201H78.3408V17.7496H80.0567V14.9483C80.6752 16.3157 81.0237 17.8307 81.0237 19.4296C81.0237 22.6485 79.6244 25.5403 77.4017 27.5315L71.1486 24.2407L75.038 22.4251L74.313 20.8701L70.9318 22.4477V18.7618H76.3907V17.0459H64.0682L64.0695 17.0499ZM61.1592 13.3069C63.1171 10.439 66.4119 8.55555 70.147 8.55555C73.8821 8.55555 77.1769 10.439 79.1348 13.3069H61.1592ZM75.8826 28.6741C74.4261 29.58 72.7408 30.1493 70.9331 30.2783V26.0697L75.8826 28.6741ZM83.0375 43.3936C82.1117 43.6091 81.2312 43.5559 80.4131 43.4588L79.7587 43.3803L79.4993 43.9855C78.785 45.6482 77.7409 47.4732 74.3663 48.0797C72.9536 48.3338 71.8682 48.7156 70.9823 49.2928V44.8275H76.2271V43.2553H70.9823V39.7171H83.0375V43.3936ZM83.0375 38.1448H70.9823V34.2142H83.0375V38.1448ZM83.0375 32.6406H70.9345V31.8572C73.1146 31.7188 75.1417 31.0205 76.8736 29.9019L78.0574 29.0399C80.8215 26.756 82.5826 23.303 82.5826 19.4375C82.5826 12.562 77.0093 6.98863 70.1337 6.98863C63.2581 6.98863 57.6848 12.562 57.6848 19.4375C57.6848 19.8313 57.7047 20.221 57.7407 20.6054H48.7674C48.8472 20.2423 48.9576 19.8605 49.104 19.4548C49.7863 17.5607 49.9326 16.0975 49.5469 14.6676C50.9781 14.2859 52.1726 13.4279 53.4722 11.8902C55.6856 9.27117 57.7872 9.28048 59.5842 9.49198L60.2387 9.56913L60.4981 8.96391C61.211 7.30121 62.2552 5.47624 65.6311 4.86969C67.6131 4.51321 68.9525 3.90799 69.998 2.85983C71.0435 3.90799 72.3843 4.51321 74.3649 4.86969C77.7395 5.47624 78.7837 7.30121 79.498 8.96391L79.7574 9.56913L80.4118 9.49198C81.2285 9.39488 82.1104 9.34167 83.0362 9.55716V32.638L83.0375 32.6406ZM86.5252 41.0605C85.8747 41.8293 85.2349 42.3707 84.6098 42.7485V39.7171H87.8327C87.4004 40.0922 86.9695 40.5351 86.5252 41.0605ZM90.4146 38.1448H84.6084V34.2142H90.6527C90.1977 35.7133 90.1206 36.945 90.4146 38.1448ZM91.1568 32.6406H84.6084V19.8858H91.0344C91.9549 22.8454 90.9453 24.5653 89.9118 25.9486L89.5327 26.4568H86.5904V28.029H90.6021C91.2659 29.1716 91.6875 30.5962 91.1568 32.6406Z" fill="white"/>
<path d="M74.208 10.1875H66.4093V11.9034H74.208V10.1875Z" fill="white"/>
<path d="M13.7445 61.0889C15.4976 61.2565 17.1909 61.4893 18.8257 61.7952C19.8552 61.8378 20.37 62.1185 20.37 62.6332C20.37 62.8008 20.064 63.0097 19.4548 63.2677C18.827 63.567 18.5091 63.9075 18.5091 64.2853V65.6859H27.066C27.5329 65.2669 27.9279 64.9145 28.2565 64.6325C28.7233 64.1416 29.0878 63.8969 29.3459 63.8969C29.6691 63.8969 30.4525 64.4117 31.6922 65.4412C32.8176 66.351 33.3736 66.9975 33.3736 67.3686C33.3736 67.6745 33.1049 67.8714 32.5715 67.9672C31.913 67.9672 31.53 68.0084 31.4103 68.1042C30.4525 68.6908 29.3459 69.2707 28.0835 69.8573C28.5265 70.3894 28.7473 70.7312 28.7473 70.8682C28.7473 71.2686 28.573 71.4668 28.2205 71.4668H17.844C16.6056 72.4963 15.4737 73.3343 14.4455 73.9914C16.337 75.416 17.6472 76.7861 18.3708 78.091C18.5556 78.3716 18.694 78.6177 18.7898 78.8265C19.9563 78.1269 21.0217 77.366 21.9795 76.552C23.4041 75.3309 24.4097 74.2003 24.9963 73.1468C26.0737 73.7573 27.0194 74.2841 27.8388 74.727C28.9335 75.3136 29.4842 75.7685 29.4842 76.0917C29.4842 76.3724 29.1902 76.54 28.6103 76.5826C27.9758 76.5826 27.6047 76.7023 27.485 76.9351C26.4554 77.4738 25.366 77.9646 24.2234 78.4075C23.1221 78.8265 21.5485 79.2509 19.4894 79.6699C21.0098 81.1902 22.5408 82.4166 24.0851 83.3504C26.8438 84.8947 29.5786 85.9841 32.2895 86.6119L32.1458 87.4553C31.1163 87.7838 30.3807 88.4968 29.9378 89.5915C29.705 90.4109 29.411 90.8179 29.0639 90.8179C28.5491 90.8179 27.3759 90.1422 25.5576 88.7894C23.6368 87.4552 21.8411 85.7487 20.1532 83.667C20.201 83.9955 20.225 84.3187 20.225 84.6486C20.225 87.2225 19.9563 89.1126 19.4176 90.3271C18.8789 91.6612 18.1912 92.6428 17.3532 93.2773C16.6056 93.8573 16.019 94.1512 15.6 94.1512C15.2954 94.1512 15.0081 93.7442 14.7261 92.9248C14.3071 91.9911 12.949 91.1956 10.6572 90.5425L10.8008 89.944C12.4822 90.0344 13.6141 90.081 14.2007 90.081C15.0627 90.081 15.6253 89.7458 15.882 89.0634C16.1388 88.4595 16.2771 87.2677 16.301 85.4906C14.5053 86.5202 12.6684 87.3941 10.8008 88.1177C8.30016 89.0754 4.99074 90.0264 0.872581 90.9602L0.561325 90.2246C3.50496 89.0754 6.03091 87.8969 8.13123 86.6824C10.5189 85.468 13.1699 83.667 16.0909 81.2847C16.019 80.746 15.9419 80.1953 15.8461 79.6326C13.9786 80.847 12.0406 81.8526 10.0294 82.6481C7.78539 83.5579 4.82846 84.4491 1.15457 85.311L0.873908 84.6473C3.44776 83.5459 5.65581 82.4033 7.50473 81.2128C9.62898 80.0223 12.0166 78.2692 14.6556 75.9521C14.351 75.3655 14.0158 74.8747 13.6381 74.4796C13.3813 74.6179 13.1472 74.7496 12.9384 74.8627C11.3702 75.6821 9.57578 76.407 7.54064 77.0415C5.50551 77.6467 3.28548 78.1721 0.873908 78.615L0.562653 77.8795C2.9689 77.1559 5.2009 76.2221 7.25865 75.0728C9.15013 74.0021 10.753 72.7983 12.0645 71.4641H9.53853C7.5034 71.4641 6.06816 71.512 5.22351 71.6011L4.62494 70.1765C5.7742 70.3614 7.40763 70.4572 9.53853 70.4572H22.86C22.9491 70.4093 23.3269 69.973 23.9787 69.1523C24.7981 68.1414 25.2649 67.6386 25.3793 67.6386C25.7079 67.6386 26.1867 67.9326 26.8212 68.5178C27.1205 67.9073 27.4012 67.2968 27.6592 66.6862H5.22351C5.22351 68.6495 4.82846 69.9478 4.03302 70.5756C3.42248 71.1622 2.63902 71.4548 1.68131 71.4548C1.19049 71.4548 0.771488 71.258 0.418998 70.8563C0.137005 70.533 0 70.1686 0 69.7735C0 69.558 0.622511 68.9901 1.86088 68.0496C3.02743 66.9789 3.68054 65.6381 3.82419 64.0339L4.48794 63.8902C4.79254 64.5899 5.00271 65.1885 5.11577 65.6793H14.1994V64.554C14.1994 63.4353 14.0491 62.2794 13.7445 61.0836" fill="white"/>
<path d="M54.1293 65.972V76.7795H61.4185V65.972H54.1293ZM42.4957 76.7795H50.1082V65.972H42.4957V76.7795ZM54.1293 77.7491V89.2749H61.4185V77.7491H54.1293ZM42.4957 89.2749H50.1082V77.7491H42.4957V89.2749ZM38.0198 63.321C39.7011 63.7639 41.2813 64.3385 42.7538 65.0382H60.1442C60.6351 64.5234 61.0594 64.0565 61.4065 63.6375C62.0171 62.9791 62.4361 62.6559 62.6689 62.6559C63.1357 62.6559 63.9551 63.0509 65.1283 63.8464C66.4811 64.9171 67.1568 65.6301 67.1568 65.9826C67.1568 66.3111 66.8455 66.6703 66.2111 67.0653C65.7442 67.467 65.5114 67.8608 65.5114 68.2558V84.779L65.7561 92.0683C65.7561 92.5112 65.0804 92.8344 63.721 93.0499C63.1171 93.1151 62.6795 93.1523 62.4228 93.1523C61.7471 93.1523 61.4052 92.7932 61.4052 92.0696V90.2087H42.5064V92.3449C42.5064 92.7932 41.8599 93.1284 40.5737 93.3625C40.0416 93.4343 39.6519 93.4702 39.4191 93.4702C38.5758 93.4702 38.1568 93.0938 38.1568 92.3449C38.343 89.5197 38.4388 87.0482 38.4388 84.924V70.0768C38.4388 68.2093 38.3004 65.96 38.0198 63.321Z" fill="white"/>
<path d="M89.7508 82.5239V86.0781H97.3274V82.5239H89.7508ZM78.5482 86.0781H85.9811V82.5239H78.5482V86.0781ZM89.7508 91.1047H97.3274V87.0119H89.7508V91.1047ZM78.5482 91.1047H85.9811V87.0119H78.5482V91.1047ZM74.4607 79.7293C76.0941 80.2015 77.7222 80.8187 79.3317 81.5901H95.7711C96.3337 80.9796 96.8485 80.4648 97.3154 80.0458C97.6865 79.6508 98.015 79.4539 98.297 79.4539C98.5963 79.4539 99.308 79.8011 100.433 80.5007C101.743 81.368 102.397 81.9493 102.397 82.2539C102.397 82.5771 102.14 82.9057 101.625 83.2289C101.297 83.5096 101.134 83.8394 101.134 84.2105V88.2622C101.134 89.3569 101.182 90.8533 101.271 92.7382C101.271 93.205 100.679 93.5575 99.4875 93.7916C98.9488 93.8635 98.5538 93.8994 98.297 93.8994C97.6386 93.8994 97.3154 93.511 97.3154 92.7382V92.0744H78.5602V92.6012C78.5602 93.068 77.9922 93.4205 76.843 93.6546C76.3349 93.7198 75.9691 93.7571 75.7602 93.7571C74.9887 93.7571 74.6057 93.374 74.6057 92.6025C74.6948 91.412 74.7427 90.2082 74.7427 89.0004V84.8051C74.7427 83.0573 74.6469 81.3707 74.4607 79.7306V79.7293ZM82.3179 77.7487H93.5923V74.1227H82.3179V77.7487ZM78.2662 71.6087C79.7201 71.9612 81.1926 72.4759 82.689 73.153H92.8381C93.305 72.5664 93.688 72.0875 93.9927 71.7164C94.2973 71.3639 94.6271 71.1897 94.9743 71.1897C95.4 71.1897 96.1355 71.5728 97.189 72.3442C98.4035 73.1636 99.014 73.7569 99.014 74.1333C99.014 74.39 98.7692 74.6481 98.2784 74.8995C97.8355 75.1322 97.5668 75.3903 97.471 75.671V79.2797C97.471 79.6987 96.8791 80.0033 95.6873 80.1895C95.1778 80.2613 94.7894 80.2972 94.538 80.2972C93.9102 80.2972 93.5923 79.9567 93.5923 79.2797V78.7529H82.3126V79.0336C82.3126 79.4765 81.738 79.8051 80.5887 80.0152C80.1165 80.111 79.7573 80.1522 79.4993 80.1522C78.769 80.1522 78.4099 79.817 78.4099 79.1347C78.5004 78.4829 78.5469 77.746 78.5469 76.9319V74.5496C78.5469 73.7116 78.4511 72.73 78.2649 71.6047L78.2662 71.6087ZM85.4118 61.3332C86.9734 61.4769 88.4752 61.6857 89.9237 61.9677C90.8335 61.9916 91.2885 62.2125 91.2885 62.6315C91.2885 62.7991 91.0317 63.0079 90.517 63.2659C89.9131 63.5652 89.6071 63.9057 89.6071 64.2835V65.6842H98.0576C98.5006 65.2652 98.889 64.9127 99.2122 64.6307C99.6844 64.1399 100.032 63.8951 100.266 63.8951C100.618 63.8951 101.415 64.4099 102.653 65.4394C103.772 66.3546 104.335 66.9957 104.335 67.3721C104.335 67.6714 104.054 67.8749 103.491 67.964C102.863 67.964 102.498 68.0119 102.409 68.1077C101.146 68.9989 99.6019 69.8728 97.777 70.7414L97.185 70.4594H82.0505C80.0154 70.4594 78.5682 70.5073 77.6996 70.5964L77.1729 69.2077C78.2982 69.4166 79.9196 69.5243 82.0505 69.5243H92.4151C92.5055 69.4764 92.87 69.0761 93.4978 68.3219C94.2454 67.4187 94.695 66.9691 94.832 66.9691C95.1845 66.9691 95.7538 67.4174 96.5492 68.3219C97.0879 68.9085 97.4404 69.3328 97.6027 69.5961C97.9977 68.6504 98.3263 67.6807 98.5843 66.6884H76.2271C76.2032 67.6461 76.138 68.3697 76.0183 68.8606C75.8094 69.914 75.4317 70.6616 74.8996 71.1045C74.595 71.3373 74.2771 71.457 73.9486 71.457C73.201 71.457 72.5719 71.2362 72.0571 70.7866C71.6141 70.4155 71.3933 69.8768 71.3933 69.1771C71.3933 68.8247 71.7764 68.3817 72.5479 67.843C73.3673 67.3282 74.0084 66.7363 74.4753 66.0659C74.9422 65.486 75.3306 64.5575 75.6365 63.3005L76.3003 63.4734C76.3003 64.2689 76.2883 65.0058 76.2644 65.6815H85.7311V64.4192C85.7311 63.4136 85.6233 62.384 85.4145 61.3306L85.4118 61.3332Z" fill="white"/>
<path d="M107.407 82.6744C108.556 82.8832 110.19 82.991 112.314 82.991H121.889V82.6744C121.889 81.5078 121.75 80.4783 121.47 79.5924C122.523 79.7294 123.792 79.9276 125.27 80.1843C126.676 80.328 127.377 80.5501 127.377 80.8547C127.377 81.2737 127.036 81.6023 126.359 81.8364C125.892 81.9734 125.66 82.2554 125.66 82.6744V82.991H133.236C133.349 82.9431 133.751 82.4762 134.427 81.5903C135.265 80.5608 135.761 80.046 135.899 80.046C136.366 80.046 137.066 80.5488 138.006 81.5544C138.964 82.56 139.443 83.1758 139.443 83.4033C139.443 83.7505 139.198 83.9234 138.707 83.9234H126.434C128.277 85.1857 130.323 86.1314 132.567 86.7659C135.045 87.4895 137.522 87.9923 140 88.2743L139.863 89.1482C138.881 89.4528 138.134 90.1299 137.619 91.1834C137.386 91.9788 137.152 92.3739 136.919 92.3739C136.452 92.3739 135.387 92.0147 133.73 91.2845C132 90.4704 130.372 89.4768 128.852 88.3049C127.59 87.2102 126.53 86.061 125.662 84.8691V93.0376C125.662 93.5111 125.1 93.845 123.969 94.0552C123.454 94.127 123.09 94.1629 122.88 94.1629C122.125 94.1629 121.754 93.9408 121.754 93.4992C121.843 92.8647 121.893 92.3978 121.893 92.0932V85.9958C120.935 86.7912 120.037 87.4443 119.194 87.9591C117.721 88.845 116.016 89.6284 114.071 90.3055C112.156 91.0118 110.032 91.6037 107.692 92.0945L107.41 91.359C109.75 90.5396 111.934 89.5034 113.969 88.2411C115.932 87.0027 117.566 85.5595 118.876 83.9261H112.317C110.288 83.9261 108.846 83.9739 108.008 84.0631L107.41 82.6744H107.407Z" fill="white"/>
<path d="M108.437 71.1843C109.555 71.3706 111.184 71.4663 113.308 71.4663H117.635C117.707 71.4184 117.975 71.1258 118.442 70.5871C119.029 69.9593 119.364 69.6414 119.46 69.6414C119.788 69.6414 120.255 69.9712 120.86 70.623C121.543 71.2987 121.878 71.7124 121.878 71.8494C121.878 72.2378 121.741 72.436 121.459 72.436H116.971V76.2961C118.305 76.1764 119.802 76.0141 121.459 75.7986L121.74 76.3254C119.591 77.5638 117.755 78.4204 116.239 78.8873C114.54 79.402 113.11 79.7545 111.936 79.9407C111.285 80.0365 110.955 80.1496 110.955 80.2879C110.914 80.4555 110.852 80.6883 110.782 80.9942C110.71 81.4611 110.573 81.6939 110.363 81.6939C109.963 81.6939 109.484 80.8266 108.926 79.0961C108.759 78.6292 108.502 77.8457 108.155 76.7497C109.884 76.7258 111.601 76.6539 113.308 76.5342V72.4347C111.273 72.4347 109.825 72.4826 108.957 72.573L108.437 71.1843Z" fill="white"/>
<path d="M126.228 61.2135C127.346 61.5367 128.424 61.8652 129.453 62.1951C130.483 62.4944 130.998 62.8229 130.998 63.1768C130.998 63.5306 130.705 63.7447 130.118 63.8405C129.562 63.9123 129.244 64.0254 129.173 64.193C129.012 64.4271 128.832 64.6479 128.646 64.8568H133.667C133.691 64.8568 134.032 64.491 134.685 63.7674C135.595 62.7445 136.193 62.2297 136.474 62.2297C136.731 62.2297 137.491 62.7977 138.754 63.9469C139.568 64.6705 139.98 65.1201 139.98 65.305C139.98 65.6522 139.735 65.8251 139.245 65.8251H131.734C132.53 66.0579 133.116 66.292 133.494 66.5248C134.332 67.0156 134.757 67.4346 134.757 67.7871C134.757 68.4149 134.613 68.9297 134.332 69.3314C134.009 69.6786 133.68 69.8701 133.351 69.8874C133.559 70.055 133.787 70.2279 134.021 70.4141C134.907 71.0726 135.35 71.5926 135.35 71.9944C135.35 72.2511 135.069 72.569 134.512 72.9401C133.949 73.1729 133.669 73.4668 133.669 73.8193V75.357C133.669 75.8718 133.776 76.1883 133.986 76.308C134.195 76.4211 134.626 76.4823 135.285 76.4823L135.984 76.4105C136.379 76.4105 136.684 76.0633 136.894 75.357C137.103 74.6573 137.373 73.6876 137.702 72.4479L138.293 72.5916L138.437 74.4113C138.437 74.8781 138.646 75.4288 139.065 76.0633C139.675 76.6432 139.98 77.0809 139.98 77.3562C139.98 78.0798 139.525 78.5946 138.61 78.9005C137.557 79.253 136.45 79.4273 135.282 79.4273C133.199 79.4273 132.027 79.3195 131.769 79.1107C130.878 78.8287 130.435 77.7819 130.435 75.9569V71.7137H129.381C129.125 72.8563 128.754 73.838 128.263 74.6573C128.424 74.7531 128.557 74.8302 128.646 74.9021C129.089 75.1841 129.316 75.4887 129.316 75.8172C129.316 76.5169 129.048 77.1221 128.509 77.6369C128.042 78.2953 127.455 78.6185 126.756 78.6185C126.523 78.6185 126.085 78.2354 125.457 77.4639C124.895 77.7699 124.207 78.0625 123.386 78.3379C122.082 78.7861 120.407 79.0974 118.372 79.2889L118.199 78.7622C119.557 78.3857 120.586 78.0266 121.286 77.6728C121.914 77.3668 122.572 76.9372 123.249 76.3746C123.458 76.1883 123.656 75.9795 123.841 75.7467C123.142 75.0883 122.345 74.5083 121.459 73.9936L121.878 73.1503C123.051 73.2939 124.069 73.4442 124.929 73.6052C125.138 73.0013 125.306 72.3668 125.42 71.7137C124.343 71.7376 123.433 71.7855 122.685 71.8507L122.123 70.462C123.409 70.6469 124.953 70.7427 126.754 70.7427H129.98C130.399 70.3902 130.74 70.1082 130.998 69.8994C131.254 69.7131 131.476 69.5708 131.661 69.4804C131.5 69.2236 131.362 68.8698 131.242 68.4269C131.08 67.5357 130.596 66.6671 129.806 65.8238H127.837C127.442 66.2428 127.047 66.6192 126.647 66.9424C125.761 67.6727 124.588 68.4202 123.14 69.1864L122.685 68.7674C123.643 67.529 124.379 66.3731 124.893 65.3024C125.408 64.1597 125.851 62.795 126.228 61.2095V61.2135Z" fill="white"/>
<path d="M111.901 61.2137C113.019 61.537 114.109 61.8655 115.162 62.1954C116.168 62.4947 116.671 62.8232 116.671 63.1771C116.671 63.5309 116.39 63.745 115.827 63.8408C115.241 63.9126 114.917 64.0257 114.846 64.1933C114.709 64.4274 114.565 64.6482 114.427 64.857H118.215C118.256 64.857 118.61 64.4912 119.262 63.7676C120.177 62.7448 120.758 62.23 121.015 62.23C121.295 62.23 122.08 62.798 123.366 63.9472C124.162 64.6708 124.557 65.1204 124.557 65.3053C124.557 65.6525 124.312 65.8254 123.821 65.8254H116.915C117.43 66.0342 117.849 66.2683 118.178 66.525C118.949 67.0159 119.332 67.4947 119.332 67.9616C119.332 68.7331 119.062 69.3676 118.525 69.8584C118.178 70.163 117.753 70.3133 117.262 70.3133C117.03 70.3133 116.819 70.2295 116.635 70.0686C116.474 69.9063 116.329 69.4939 116.216 68.8422C116.072 67.951 115.713 66.9454 115.126 65.8267H113.726C113.163 66.5982 112.54 67.2753 111.865 67.8619C110.763 68.8435 109.327 69.8491 107.55 70.8773L107.131 70.453C108.441 68.9393 109.446 67.5094 110.147 66.1805C110.847 64.8105 111.434 63.1518 111.901 61.2137Z" fill="white"/>
<path d="M2.27452 108.678L1.68127 108.483C2.27718 107.089 2.58578 105.848 2.6044 104.76V100.415C2.6044 100.298 2.66293 100.239 2.77998 100.239H9.83778C9.96148 100.239 10.0227 100.298 10.0227 100.415V107.998C10.016 108.237 9.95084 108.416 9.82847 108.533C9.51721 108.792 8.81489 108.815 7.71884 108.6V107.939C8.61936 108.179 9.16738 108.228 9.36158 108.086C9.42011 108.034 9.44937 107.946 9.44937 107.824V105.87H6.52303V108.688H5.94974V105.87H3.10188C2.94625 106.867 2.67091 107.804 2.27585 108.679L2.27452 108.678ZM5.94974 105.295V103.302H3.17903V105.062C3.17238 105.134 3.16573 105.211 3.15908 105.295H5.94974ZM5.94974 100.814H3.25618C3.2043 100.82 3.17903 100.846 3.17903 100.891V102.728H5.94974V100.812V100.814ZM6.52303 102.729H9.44937V100.882C9.44272 100.836 9.41745 100.814 9.37089 100.814H6.52303V102.729ZM9.44937 105.296V103.304H6.52303V105.296H9.44937Z" fill="white"/>
<path d="M14.9004 101.475C14.8938 103.231 14.6251 105.315 14.093 107.726L13.5197 107.639C14.0518 105.078 14.3165 103.008 14.3165 101.427L14.9004 101.475ZM16.6309 100.444V107.687C16.6309 107.822 16.6442 107.914 16.6695 107.959C16.728 108.031 16.8345 108.066 16.9901 108.066H19.9656C20.0694 108.066 20.1532 108.052 20.2184 108.027C20.2769 108.007 20.3181 107.969 20.3447 107.91C20.4804 107.689 20.5682 106.947 20.6068 105.683L21.1708 105.819C21.1841 107.258 21.0737 108.114 20.8409 108.386C20.6919 108.555 20.4618 108.639 20.1505 108.639H16.7387C16.5764 108.639 16.4434 108.6 16.3396 108.522C16.1321 108.373 16.0377 108.123 16.0577 107.773V100.443H16.6309V100.444ZM18.3322 99.8799C18.8177 101.423 19.1582 103.321 19.3524 105.577L18.7791 105.674C18.5397 103.282 18.2019 101.394 17.7682 100.006L18.3322 99.8799ZM21.4049 101.046C21.9941 102.77 22.4291 104.9 22.7071 107.434L22.1338 107.54C21.7973 104.857 21.3663 102.737 20.8409 101.182L21.4049 101.046Z" fill="white"/>
<path d="M26.4767 107.657V107.084H30.3261V106.141H27.5169C27.2442 106.407 26.9635 106.626 26.6709 106.802L26.3982 106.335C26.9037 106.005 27.332 105.577 27.6818 105.051L28.1394 105.401C28.0942 105.453 28.0516 105.508 28.013 105.566H30.3261V104.73L27.594 104.934L27.4477 104.37L28.4586 104.312C28.7699 103.994 29.0811 103.657 29.3924 103.301H26.8744C26.8358 103.301 26.8159 103.321 26.8159 103.359V104.546H26.2426V102.835C26.2492 102.764 26.2851 102.729 26.349 102.729H29.7715C29.1423 102.347 28.5238 102.059 27.9146 101.863C27.9665 101.675 28.021 101.491 28.0795 101.31C28.307 101.336 28.6049 101.456 28.9734 101.669C29.3033 101.429 29.6371 101.17 29.975 100.891H26.2027V100.317H30.3248V99.7335H30.8981V100.317H34.9617V100.891H30.8595C30.523 101.182 30.0694 101.536 29.4988 101.951C29.7582 102.086 30.0468 102.246 30.3647 102.427C31.2586 101.973 31.9716 101.549 32.5036 101.154L32.8056 101.65C32.3067 102.013 31.7334 102.372 31.0843 102.729H34.7103L35.2357 102.991C35.1772 103.431 35.0482 103.957 34.8473 104.566C34.6718 104.501 34.4935 104.437 34.3126 104.372C34.4549 103.892 34.5361 103.564 34.556 103.39C34.5494 103.332 34.5228 103.302 34.4776 103.302H30.1319C29.9045 103.58 29.6331 103.896 29.3152 104.245L32.2801 104.042C32.1764 103.958 32.0819 103.886 31.9981 103.828L32.3772 103.381C32.8242 103.699 33.311 104.143 33.8351 104.712L33.4267 105.13C33.2126 104.909 33.0144 104.712 32.8335 104.537L30.8994 104.683V105.568H34.5348V106.141H30.8994V107.084H35.0402V107.657H30.8994V108.921H30.3261V107.657H26.4767Z" fill="white"/>
<path d="M43.9057 101.825H40.2305C40.1853 101.825 40.1627 101.847 40.1627 101.893V103.195H42.8655C43.0012 103.195 43.073 103.228 43.0797 103.292V106.354C43.073 106.839 42.9241 107.184 42.6328 107.385C42.3348 107.554 41.715 107.55 40.7759 107.375L40.7373 106.773C41.5407 106.98 42.0595 107.016 42.2923 106.879C42.3574 106.841 42.4093 106.773 42.4479 106.676C42.4865 106.592 42.5064 106.517 42.5064 106.452V103.847C42.5064 103.795 42.4771 103.769 42.4186 103.769H40.1627V104.363C40.1627 106.158 39.8714 107.652 39.2874 108.844L38.7328 108.64C39.0759 107.882 39.3061 107.169 39.4231 106.502C39.5269 105.879 39.5814 105.107 39.588 104.188V101.408C39.588 101.305 39.6399 101.253 39.7437 101.253H43.8166C43.7448 100.741 43.6969 100.267 43.6703 99.8334L44.2436 99.8627C44.2822 100.316 44.334 100.781 44.3992 101.253H47.7046V101.826H44.487C44.7331 103.317 45.0417 104.551 45.4101 105.53C45.7866 104.921 46.143 103.962 46.4796 102.653L47.0343 102.789C46.723 104.156 46.2668 105.278 45.6629 106.153C45.9355 106.776 46.2109 107.313 46.4889 107.766C46.6698 108.058 46.7935 108.204 46.8587 108.204C46.9358 108.204 47.0076 108.107 47.0728 107.913C47.1965 107.466 47.2896 106.911 47.3548 106.25L47.9188 106.406C47.7179 107.76 47.4971 108.567 47.2577 108.827C47.1925 108.892 47.0981 108.924 46.9757 108.924C46.8068 108.91 46.6512 108.833 46.5088 108.691C46.0739 108.211 45.6629 107.531 45.2745 106.649C44.6905 107.382 43.8512 108.14 42.7565 108.924L42.2896 108.506C43.1382 107.922 43.9071 107.29 44.5934 106.611C44.7424 106.43 44.8887 106.25 45.031 106.076C44.5509 104.844 44.1757 103.429 43.9031 101.827L43.9057 101.825ZM45.6269 99.7244C45.9449 99.9319 46.2907 100.214 46.6671 100.57L46.288 101.017C45.893 100.629 45.5551 100.354 45.2771 100.191L45.6269 99.7244Z" fill="white"/>
<path d="M52.0662 103.735C52.2444 103.737 52.3987 103.8 52.5291 103.921C52.6568 104.054 52.7193 104.208 52.7193 104.384C52.7193 104.559 52.6554 104.712 52.5291 104.841C52.3961 104.972 52.2418 105.037 52.0662 105.037C51.8906 105.037 51.7376 104.972 51.6086 104.841C51.4809 104.711 51.4184 104.558 51.4184 104.384C51.4184 104.21 51.4822 104.051 51.6086 103.921C51.739 103.797 51.8919 103.735 52.0662 103.735Z" fill="white"/>
<path d="M60.7374 103.905C60.4914 104.695 60.0857 105.5 59.5217 106.317C58.8287 107.237 57.8656 108.038 56.6339 108.718L56.2162 108.241C56.5914 108.06 56.9385 107.869 57.2564 107.668C59.0575 106.456 60.1083 104.768 60.4062 102.603H56.449V102.03H60.4541C60.4674 101.815 60.4741 101.599 60.4741 101.378V99.9292H61.0859V101.378C61.0793 101.585 61.0726 101.79 61.066 101.99V102.028H65.091V102.601H61.0859C61.1445 103.502 61.4358 104.375 61.9612 105.217C62.6994 106.351 63.8114 107.387 65.2959 108.328L64.829 108.745C64.6867 108.642 64.5537 108.547 64.4299 108.463C62.44 107.057 61.2083 105.537 60.7361 103.904L60.7374 103.905Z" fill="white"/>
<path d="M76.7566 108.668H68.9406C68.8435 108.668 68.7943 108.617 68.7943 108.513V100.269C68.7943 100.171 68.8421 100.122 68.9406 100.122H76.7566C76.8603 100.122 76.9122 100.17 76.9122 100.269V108.513C76.9122 108.617 76.8603 108.668 76.7566 108.668ZM69.3875 100.697C69.3742 100.703 69.3675 100.71 69.3675 100.717V108.066C69.3742 108.086 69.3809 108.095 69.3875 108.095H76.3096C76.3296 108.095 76.3389 108.086 76.3389 108.066V100.717C76.3389 100.703 76.3296 100.697 76.3096 100.697H69.3875ZM75.5514 105.052L75.9106 105.499C75.5341 105.862 75.0553 106.241 74.4713 106.636C75.0353 107.038 75.5794 107.329 76.1048 107.511L75.7749 108.007C75.5927 107.936 75.4317 107.868 75.2894 107.804C74.1747 107.312 73.3514 106.472 72.8206 105.286H72.403V107.91H71.8297V105.868C71.1819 106.484 70.562 106.913 69.9728 107.152L69.6229 106.667C70.3678 106.337 71.0422 105.876 71.6448 105.286H70.429C70.3771 105.286 70.3505 105.257 70.3505 105.198V103.429C70.3572 103.377 70.3825 103.35 70.429 103.35H75.1923C75.2508 103.357 75.2801 103.384 75.2801 103.429V105.198C75.2801 105.257 75.2508 105.286 75.1923 105.286H73.4618C73.6041 105.539 73.7531 105.771 73.9087 105.986C73.9672 106.057 74.0191 106.13 74.0643 106.209C74.6988 105.775 75.1949 105.39 75.5514 105.052ZM72.528 101.941H70.0007V101.367H72.528V100.823H73.1013V101.367H75.6485V101.941H73.1013V102.417H75.8813V102.99H69.8052V102.417H72.5267V101.941H72.528ZM70.9438 103.924C70.9305 103.93 70.9238 103.937 70.9238 103.944V104.682C70.9305 104.702 70.9371 104.711 70.9438 104.711H74.6775C74.6975 104.711 74.7068 104.702 74.7068 104.682V103.944C74.7068 103.93 74.6975 103.924 74.6775 103.924H70.9438Z" fill="white"/>
<path d="M85.0952 103.244C84.8492 104.313 84.4049 105.344 83.7638 106.335C83.0641 107.366 82.0918 108.264 80.8467 109.029L80.4091 108.571C81.1607 108.176 81.8124 107.696 82.3631 107.132C83.9513 105.595 84.7454 103.483 84.7454 100.794V99.812H85.3573V100.794C85.3573 100.879 85.3546 100.969 85.348 101.066C85.3413 101.131 85.3413 101.197 85.348 101.26V101.348C85.3866 102.1 85.6712 103.14 86.2033 104.469C87.0067 105.947 88.1865 107.317 89.7415 108.582L89.1682 109.009C88.6494 108.535 88.2051 108.115 87.8367 107.745C86.4241 106.3 85.5103 104.8 85.0952 103.244Z" fill="white"/>
<path d="M96.6423 108.591H93.3183C93.2664 108.591 93.2398 108.562 93.2398 108.503V101.29C93.2464 101.238 93.2717 101.211 93.3183 101.211H94.417C94.5393 100.927 94.6897 100.489 94.8639 99.8986L95.3986 100.093C95.3534 100.223 95.2789 100.447 95.1752 100.763C95.1166 100.919 95.0647 101.068 95.0195 101.21H96.6423C96.7008 101.217 96.7301 101.242 96.7301 101.289V108.502C96.7301 108.561 96.7008 108.59 96.6423 108.59V108.591ZM96.1568 104.44V101.805C96.1568 101.791 96.1475 101.785 96.1276 101.785H93.833C93.8197 101.791 93.8131 101.798 93.8131 101.805V104.44H96.1555H96.1568ZM93.8144 105.013V107.989C93.8211 108.009 93.8277 108.018 93.8344 108.018H96.1289C96.1488 108.018 96.1581 108.009 96.1581 107.989V105.013H93.8157H93.8144ZM97.5189 103.118L96.9749 102.894C97.5708 101.98 97.9272 101.008 98.0443 99.977L98.6083 100.056C98.5564 100.373 98.4979 100.667 98.4327 100.94H101.436C101.481 100.947 101.517 100.953 101.543 100.96C101.588 100.987 101.614 101.021 101.62 101.066C101.658 101.294 101.649 102.655 101.59 105.15C101.545 106.31 101.442 107.136 101.279 107.629C101.11 108.116 100.878 108.439 100.58 108.602C100.087 108.893 99.2281 108.835 98.0031 108.426L98.0323 107.794C99.2122 108.189 99.9664 108.271 100.298 108.038C100.447 107.941 100.58 107.733 100.697 107.415C100.852 106.987 100.949 106.188 100.988 105.014C101.046 102.798 101.053 101.637 101.008 101.533C100.995 101.52 100.976 101.513 100.949 101.513H98.2758C98.0097 102.226 97.757 102.761 97.5176 103.118H97.5189ZM98.8703 102.885C99.4277 104.304 99.8067 105.396 100.008 106.161L99.4636 106.297C99.1909 105.299 98.8118 104.223 98.3263 103.068L98.8703 102.883V102.885Z" fill="white"/>
<path d="M105.714 108.648L105.141 108.502C105.795 107.173 106.12 105.799 106.113 104.38H106.686C106.654 105.073 106.589 105.686 106.492 106.217C106.783 106.722 107.162 107.121 107.629 107.412V103.378H105.373V102.805H107.629V101.512H105.725V100.939H107.629V99.7335H108.203V100.939H109.661V101.512H108.203V102.805H109.816V103.378H108.203V104.788H109.661V105.361H108.203V107.694C108.682 107.863 109.496 107.956 110.642 107.976H114.307L114.16 108.55H110.855C110.149 108.53 109.529 108.498 108.998 108.453C108.926 108.439 108.862 108.433 108.804 108.433C107.741 108.257 106.918 107.762 106.335 106.946C106.16 107.613 105.952 108.18 105.713 108.647L105.714 108.648ZM110.448 100.239H113.812C113.909 100.246 113.958 100.291 113.958 100.375V103.612C113.958 103.716 113.906 103.768 113.803 103.768H110.886V106.169C110.886 106.363 110.915 106.493 110.973 106.557C111.052 106.641 111.142 106.687 111.246 106.693H113.094C113.281 106.686 113.428 106.621 113.531 106.499C113.635 106.343 113.683 105.905 113.678 105.186L114.271 105.264C114.232 106.139 114.125 106.693 113.95 106.927C113.769 107.154 113.562 107.267 113.328 107.267H111.14C110.862 107.267 110.643 107.189 110.488 107.035C110.371 106.924 110.312 106.733 110.312 106.461V100.376C110.319 100.285 110.364 100.24 110.448 100.24V100.239ZM110.886 103.195H113.316C113.361 103.195 113.384 103.172 113.384 103.127V100.871C113.384 100.832 113.361 100.812 113.316 100.812H110.944C110.906 100.812 110.886 100.832 110.886 100.871V103.195Z" fill="white"/>
<path d="M122.336 104.352C120.896 105.493 119.556 106.218 118.311 106.529L118.038 106.004C119.554 105.57 120.906 104.847 122.092 103.836C121.975 103.655 121.839 103.477 121.684 103.301C120.479 104.072 119.337 104.565 118.261 104.779L118.009 104.244C119.396 103.914 120.624 103.378 121.693 102.64H119.126V102.067H125.124V102.64H122.626C122.45 102.764 122.292 102.877 122.149 102.98C122.461 103.343 122.707 103.743 122.888 104.176C123.432 105.187 123.937 105.939 124.404 106.431C125 107.027 125.787 107.636 126.766 108.258L126.319 108.716C125.004 107.906 123.993 106.983 123.287 105.945C123.39 106.697 123.287 107.384 122.975 108.007C122.788 108.422 122.506 108.7 122.129 108.842C121.793 108.966 121.216 108.892 120.399 108.619L120.428 108.016C121.148 108.249 121.633 108.328 121.886 108.249C122.125 108.165 122.317 107.964 122.459 107.647C122.712 107.161 122.806 106.597 122.741 105.955C122.735 105.923 122.732 105.896 122.732 105.877C121.067 107.174 119.514 107.987 118.075 108.317L117.802 107.792C119.65 107.273 121.264 106.417 122.644 105.226C122.56 104.894 122.457 104.603 122.333 104.35L122.336 104.352ZM121.889 99.7335H122.462V100.589H126.194L126.72 100.851C126.636 101.383 126.463 102.027 126.205 102.785C126.029 102.714 125.855 102.64 125.68 102.561C125.861 101.984 125.982 101.548 126.039 101.248C126.032 101.19 126.007 101.161 125.962 101.161H118.515C118.477 101.161 118.457 101.181 118.457 101.219V102.717H117.884V100.695C117.89 100.623 117.926 100.589 117.99 100.589H121.889V99.7335ZM125.67 103.524C125.287 103.971 124.772 104.448 124.125 104.953L123.746 104.525C124.42 103.974 124.925 103.5 125.262 103.105L125.67 103.523V103.524Z" fill="white"/>
<path d="M139.199 100.696H131.724C131.679 100.696 131.656 100.719 131.656 100.764V104.478C131.643 106.008 131.361 107.337 130.81 108.464L130.266 108.241C130.591 107.567 130.81 106.935 130.927 106.346C131.024 105.802 131.076 105.12 131.083 104.304V100.279C131.083 100.175 131.135 100.123 131.238 100.123H139.201V100.696H139.199ZM133.843 102.407H132.365V101.834H133.843V101.134H134.416V101.834H137.031V101.173H137.604V101.834H139.179V102.407H137.604V103.623H139.529V104.196H132.092V103.623H133.843V102.407ZM138.529 108.629H132.91C132.858 108.629 132.833 108.6 132.833 108.542V105.022C132.84 104.97 132.865 104.945 132.91 104.945H138.529C138.587 104.952 138.617 104.977 138.617 105.022V108.542C138.617 108.6 138.587 108.629 138.529 108.629ZM138.043 106.5V105.537C138.043 105.524 138.034 105.517 138.014 105.517H133.425C133.412 105.524 133.405 105.53 133.405 105.537V106.5H138.042H138.043ZM133.406 107.073V108.026C133.413 108.046 133.42 108.055 133.426 108.055H138.015C138.035 108.055 138.045 108.046 138.045 108.026V107.073H133.408H133.406ZM137.032 103.621V102.406H134.417V103.621H137.032Z" fill="white"/>
</svg>
