<svg width="125" height="38" viewBox="0 0 125 38" fill="none" xmlns="http://www.w3.org/2000/svg">
<g style="mix-blend-mode:multiply">
<path d="M30.8359 6.85938C30.8359 7.74479 29.8984 10.3229 28.0234 14.5938L27.2422 16.7031C27.0859 17.276 26.6172 18.4479 25.8359 20.2188L25.0547 22.1719C23.4922 26.026 22.6589 28.2917 22.5547 28.9688C22.5547 29.2292 22.2161 29.6979 21.5391 30.375C20.8099 31.1042 20.2109 31.4688 19.7422 31.4688C18.6484 31.4688 17.1901 30.401 15.3672 28.2656C14.1172 26.8594 13.3099 25.8958 12.9453 25.375C12.6328 24.8542 12.4505 24.5677 12.3984 24.5156C12.1901 24.3594 11.9818 23.9948 11.7734 23.4219C11.4089 22.901 11.2266 22.5104 11.2266 22.25C11.2266 22.1458 11.0703 21.8594 10.7578 21.3906C10.4453 20.9219 10.0547 20.0625 9.58594 18.8125C9.11719 17.6146 8.80469 17.0156 8.64844 17.0156C8.4401 17.0156 8.20573 17.4062 7.94531 18.1875L6.46094 21.5469L4.42969 26.1562L3.72656 28.0312C3.36198 28.9688 3.1276 29.724 3.02344 30.2969L2.55469 31.4688C2.39844 31.625 2.16406 31.7031 1.85156 31.7031C0.653646 31.599 0.0546875 30.9479 0.0546875 29.75C0.0546875 29.3333 0.132812 28.8125 0.289062 28.1875C0.653646 26.5729 1.51302 24.151 2.86719 20.9219L3.96094 18.7344C4.01302 18.6302 4.19531 18.1875 4.50781 17.4062C4.61198 16.8333 4.95052 16.0781 5.52344 15.1406L6.38281 13.5C6.38281 13.3958 6.53906 13.2396 6.85156 13.0312C7.16406 12.7708 7.55469 12.6146 8.02344 12.5625C8.4401 12.5625 8.72656 12.6927 8.88281 12.9531C9.14323 13.2135 9.42969 13.3698 9.74219 13.4219C10.3672 13.5781 10.9401 14.0469 11.4609 14.8281C11.9297 15.5052 12.7109 17.0156 13.8047 19.3594L14.5078 20.9219L15.2891 22.3281C15.2891 22.4323 15.6276 22.9792 16.3047 23.9688C16.6172 24.5417 17.0078 25.0625 17.4766 25.5312C17.8411 25.8958 18.0495 26.0521 18.1016 26L18.4922 25.2969L19.1172 23.9688L19.8203 22.5625C20.0286 22.1979 20.1328 21.8854 20.1328 21.625L22.4766 16.2344C22.6849 15.8698 22.7891 15.6094 22.7891 15.4531C22.7891 15.2448 23.1276 14.4375 23.8047 13.0312C24.7422 11 25.3932 9.35938 25.7578 8.10938C26.3307 6.54688 26.7214 5.66146 26.9297 5.45312C27.1901 5.19271 27.5026 5.0625 27.8672 5.0625C28.1797 5.0625 28.5443 5.14062 28.9609 5.29688C30.2109 5.76562 30.8359 6.28646 30.8359 6.85938ZM51.1797 9.51562C51.2318 9.46354 51.4401 9.4375 51.8047 9.4375C53.5234 9.4375 54.5911 9.59375 55.0078 9.90625C55.2161 10.1146 55.5286 10.2188 55.9453 10.2188C56.5703 10.2188 57.0391 10.7917 57.3516 11.9375L57.5859 13.1094L56.6484 15.0625L55.7109 17.0938C55.7109 17.1458 55.5026 17.4583 55.0859 18.0312C54.6172 18.5 54.3307 18.9688 54.2266 19.4375C54.0182 19.9062 53.3932 20.6615 52.3516 21.7031C51.362 22.849 50.8672 23.5521 50.8672 23.8125C50.8672 24.2292 51.7266 24.724 53.4453 25.2969C54.9557 25.7135 56.6745 25.9219 58.6016 25.9219C60.4245 25.9219 61.7526 25.8698 62.5859 25.7656C63.1589 25.6094 63.5234 25.6354 63.6797 25.8438C63.7318 25.8958 63.7578 26.0521 63.7578 26.3125C63.7578 26.6771 63.7057 27.0156 63.6016 27.3281C63.3932 28.1094 63.0547 28.6823 62.5859 29.0469C62.013 29.4635 61.1016 29.776 59.8516 29.9844C59.5911 30.0365 59.0443 30.0625 58.2109 30.0625C56.7005 30.0625 55.3203 29.8802 54.0703 29.5156C52.1432 28.9427 50.6589 28.2396 49.6172 27.4062C48.7839 26.5208 48.1328 26.3125 47.6641 26.7812C46.6745 27.4583 45.6068 27.875 44.4609 28.0312H44.1484C43.6276 28.0312 43.1849 27.875 42.8203 27.5625L41.8828 26.7031C41.8307 26.651 41.8047 26.5729 41.8047 26.4688C41.8047 26.1042 42.2474 25.6875 43.1328 25.2188C43.6536 25.0104 44.2526 24.5938 44.9297 23.9688C45.5026 23.5521 45.8151 23.1875 45.8672 22.875V22.5625C45.8672 22.1979 45.7891 21.7552 45.6328 21.2344C45.4245 20.7656 45.3203 19.8021 45.3203 18.3438C45.3203 16.8854 45.4245 15.9219 45.6328 15.4531C46.5703 12.901 47.9245 11.1562 49.6953 10.2188C50.3203 9.80208 50.8151 9.56771 51.1797 9.51562ZM54.5391 10.375C54.3307 10.4271 54.0443 10.6875 53.6797 11.1562C53.1589 11.625 52.7422 11.8594 52.4297 11.8594C52.0651 11.8594 51.7005 12.1198 51.3359 12.6406C50.8151 13.1615 50.2943 13.8385 49.7734 14.6719C49.1484 15.6615 48.8099 16.2604 48.7578 16.4688V16.9375C48.7578 17.6667 48.7839 18.1615 48.8359 18.4219C48.9401 19.2552 49.0182 19.6979 49.0703 19.75C49.1745 19.8542 49.5911 19.5417 50.3203 18.8125C51.1016 18.0312 51.8047 17.276 52.4297 16.5469L54.2266 14.4375C55.3724 13.1354 55.9453 12.1979 55.9453 11.625C55.9453 11.2604 55.7891 10.974 55.4766 10.7656C55.0599 10.5052 54.7474 10.375 54.5391 10.375ZM95.1172 13.1875C94.7526 12.5104 94.5703 11.9896 94.5703 11.625C94.5703 11.1042 94.8828 10.6354 95.5078 10.2188C95.8203 9.95833 96.3932 10.0625 97.2266 10.5312C98.0599 11 98.763 11.6771 99.3359 12.5625L100.742 14.75C101.367 15.7917 101.68 17.0677 101.68 18.5781C101.68 19.6198 101.523 20.8438 101.211 22.25C101.003 23.2917 100.508 24.4896 99.7266 25.8438C98.9453 27.1979 98.2682 28.1094 97.6953 28.5781C96.0807 30.1406 94.9089 31.1562 94.1797 31.625C93.4505 32.0938 92.5651 32.4844 91.5234 32.7969C91.3151 32.849 90.7682 33.0312 89.8828 33.3438C88.9974 33.6042 88.0599 33.7344 87.0703 33.7344C86.6016 33.7344 86.237 33.7083 85.9766 33.6562C85.1432 33.5521 84.388 32.849 83.7109 31.5469C83.3464 30.8698 83.0078 29.724 82.6953 28.1094C82.4349 27.3281 82.0182 26.9375 81.4453 26.9375C81.0286 26.9375 80.612 27.1198 80.1953 27.4844L77.3828 29.5156C76.0807 30.4531 75.013 30.9219 74.1797 30.9219C73.763 30.9219 73.3464 30.7656 72.9297 30.4531C72.4609 30.0885 72.0964 29.6979 71.8359 29.2812C71.5755 28.8646 71.4453 28.1354 71.4453 27.0938C71.6016 25.375 72.0703 23.6042 72.8516 21.7812C73.6849 19.9583 74.6745 18.3698 75.8203 17.0156C76.7578 15.9219 77.4349 15.2708 77.8516 15.0625C78.2682 14.9062 78.6589 14.9062 79.0234 15.0625C79.4401 15.2188 79.7526 15.4792 79.9609 15.8438C80.1693 16.2604 80.2734 16.6771 80.2734 17.0938C80.2734 17.4062 80.2214 17.6667 80.1172 17.875C79.7005 18.6562 79.1016 19.4115 78.3203 20.1406C77.5911 20.8698 77.1224 21.3646 76.9141 21.625C76.6016 22.0417 76.3151 22.6146 76.0547 23.3438C75.7943 24.0208 75.6641 24.6979 75.6641 25.375C75.6641 26 75.8724 26.3125 76.2891 26.3125C76.862 26.3125 77.7995 25.7917 79.1016 24.75C79.2057 24.6458 79.5964 24.3333 80.2734 23.8125C80.9505 23.2396 81.6276 22.9531 82.3047 22.9531C82.6693 22.9531 82.9818 23.0573 83.2422 23.2656C83.5026 23.474 83.737 23.7344 83.9453 24.0469C84.1536 24.3594 84.3359 24.5938 84.4922 24.75C85.0651 25.5312 85.5078 26.2344 85.8203 26.8594C86.1328 27.4323 86.4453 28.0833 86.7578 28.8125C87.0703 29.4896 87.4089 29.8021 87.7734 29.75C89.2839 29.4375 90.4036 29.151 91.1328 28.8906C91.862 28.5781 92.6172 28.0573 93.3984 27.3281C94.1797 26.5469 95.1432 25.2969 96.2891 23.5781C97.1745 21.8594 97.6172 20.4271 97.6172 19.2812C97.6172 18.5521 97.4609 17.849 97.1484 17.1719C96.888 16.4948 96.5234 15.7656 96.0547 14.9844C95.638 14.2031 95.3255 13.6042 95.1172 13.1875ZM124.523 1.9375C124.523 2.19792 123.326 3.8125 120.93 6.78125C120.357 7.82292 119.914 8.52604 119.602 8.89062C119.341 9.20312 119.133 9.54167 118.977 9.90625C118.82 10.2188 118.69 10.6615 118.586 11.2344C118.794 11.9635 119.185 12.6667 119.758 13.3438C120.331 13.9688 120.773 14.4896 121.086 14.9062L122.414 16.4688C123.56 17.8229 124.133 19.4115 124.133 21.2344C124.133 21.8594 124.003 22.8229 123.742 24.125C123.117 26.8333 122.154 28.7344 120.852 29.8281C119.393 31.0781 117.857 32.276 116.242 33.4219L112.648 36C111.19 36.7812 110.148 37.1719 109.523 37.1719C109.003 37.1719 108.742 36.9635 108.742 36.5469C108.742 36.1823 109.029 35.6354 109.602 34.9062C110.643 33.8646 111.945 32.7188 113.508 31.4688C115.07 30.2708 116.19 29.3073 116.867 28.5781C117.544 27.849 118.195 26.9375 118.82 25.8438C119.289 25.0104 119.68 24.125 119.992 23.1875C120.305 22.25 120.461 21.4167 120.461 20.6875C120.461 19.75 120.383 19.125 120.227 18.8125C120.07 18.5 119.706 18.1094 119.133 17.6406C118.977 17.4844 118.794 17.3281 118.586 17.1719C118.378 17.0156 118.143 16.8073 117.883 16.5469C117.518 16.1823 117.102 15.8438 116.633 15.5312C116.06 15.0625 115.591 14.6719 115.227 14.3594C114.914 13.9948 114.628 13.5 114.367 12.875C114.159 12.25 114.055 11.7552 114.055 11.3906C114.055 11.2344 114.107 10.9479 114.211 10.5312C114.315 10.3229 114.549 9.88021 114.914 9.20312C115.279 8.52604 115.956 7.32812 116.945 5.60938C119.862 2.22396 121.529 0.505208 121.945 0.453125C122.31 0.244792 122.648 0.140625 122.961 0.140625C123.378 0.140625 123.742 0.401042 124.055 0.921875C124.367 1.39062 124.523 1.72917 124.523 1.9375Z" fill="#E1E3E5"/>
</g>
</svg>
