<?xml version="1.0" encoding="utf-8"?>
<!-- Generator: Adobe Illustrator 27.0.0, SVG Export Plug-In . SVG Version: 6.00 Build 0)  -->
<svg version="1.1" id="圖層_1" xmlns="http://www.w3.org/2000/svg" xmlns:xlink="http://www.w3.org/1999/xlink" x="0px" y="0px"
	 viewBox="0 0 250 38" style="enable-background:new 0 0 250 38;" xml:space="preserve">
<style type="text/css">
	.st0{fill:#E1E3E5;}
</style>
<g>
	<path class="st0" d="M93.3,6.9c0,0.9-0.9,3.5-2.8,7.7l-0.8,2.1c-0.2,0.6-0.6,1.7-1.4,3.5l-0.8,2C86,26,85.2,28.3,85.1,29
		c0,0.3-0.3,0.7-1,1.4c-0.7,0.7-1.3,1.1-1.8,1.1c-1.1,0-2.6-1.1-4.4-3.2c-1.2-1.4-2.1-2.4-2.4-2.9c-0.3-0.5-0.5-0.8-0.5-0.9
		c-0.2-0.2-0.4-0.5-0.6-1.1c-0.4-0.5-0.5-0.9-0.5-1.2c0-0.1-0.2-0.4-0.5-0.9c-0.3-0.5-0.7-1.3-1.2-2.6c-0.5-1.2-0.8-1.8-0.9-1.8
		c-0.2,0-0.4,0.4-0.7,1.2L69,21.5l-2,4.6L66.2,28c-0.4,0.9-0.6,1.7-0.7,2.3l-0.5,1.2c-0.2,0.2-0.4,0.2-0.7,0.2
		c-1.2-0.1-1.8-0.8-1.8-2c0-0.4,0.1-0.9,0.2-1.6c0.4-1.6,1.2-4,2.6-7.3l1.1-2.2c0.1-0.1,0.2-0.5,0.5-1.3c0.1-0.6,0.4-1.3,1-2.3
		l0.9-1.6c0-0.1,0.2-0.3,0.5-0.5c0.3-0.3,0.7-0.4,1.2-0.5c0.4,0,0.7,0.1,0.9,0.4c0.3,0.3,0.5,0.4,0.9,0.5c0.6,0.2,1.2,0.6,1.7,1.4
		c0.5,0.7,1.2,2.2,2.3,4.5l0.7,1.6l0.8,1.4c0,0.1,0.3,0.7,1,1.6c0.3,0.6,0.7,1.1,1.2,1.6c0.4,0.4,0.6,0.5,0.6,0.5l0.4-0.7l0.6-1.3
		l0.7-1.4c0.2-0.4,0.3-0.7,0.3-0.9l2.3-5.4c0.2-0.4,0.3-0.6,0.3-0.8c0-0.2,0.3-1,1-2.4c0.9-2,1.6-3.7,2-4.9c0.6-1.6,1-2.4,1.2-2.7
		c0.3-0.3,0.6-0.4,0.9-0.4c0.3,0,0.7,0.1,1.1,0.2C92.7,5.8,93.3,6.3,93.3,6.9z M113.7,9.5c0.1-0.1,0.3-0.1,0.6-0.1
		c1.7,0,2.8,0.2,3.2,0.5c0.2,0.2,0.5,0.3,0.9,0.3c0.6,0,1.1,0.6,1.4,1.7l0.2,1.2l-0.9,2l-0.9,2c0,0.1-0.2,0.4-0.6,0.9
		c-0.5,0.5-0.8,0.9-0.9,1.4c-0.2,0.5-0.8,1.2-1.9,2.3c-1,1.1-1.5,1.8-1.5,2.1c0,0.4,0.9,0.9,2.6,1.5c1.5,0.4,3.2,0.6,5.2,0.6
		c1.8,0,3.2-0.1,4-0.2c0.6-0.2,0.9-0.1,1.1,0.1c0.1,0.1,0.1,0.2,0.1,0.5c0,0.4-0.1,0.7-0.2,1c-0.2,0.8-0.5,1.4-1,1.7
		c-0.6,0.4-1.5,0.7-2.7,0.9c-0.3,0.1-0.8,0.1-1.6,0.1c-1.5,0-2.9-0.2-4.1-0.5c-1.9-0.6-3.4-1.3-4.5-2.1c-0.8-0.9-1.5-1.1-2-0.6
		c-1,0.7-2.1,1.1-3.2,1.2h-0.3c-0.5,0-1-0.2-1.3-0.5l-0.9-0.9c-0.1-0.1-0.1-0.1-0.1-0.2c0-0.4,0.4-0.8,1.3-1.2
		c0.5-0.2,1.1-0.6,1.8-1.2c0.6-0.4,0.9-0.8,0.9-1.1v-0.3c0-0.4-0.1-0.8-0.2-1.3c-0.2-0.5-0.3-1.4-0.3-2.9c0-1.5,0.1-2.4,0.3-2.9
		c0.9-2.6,2.3-4.3,4.1-5.2C112.8,9.8,113.3,9.6,113.7,9.5z M117,10.4c-0.2,0.1-0.5,0.3-0.9,0.8c-0.5,0.5-0.9,0.7-1.2,0.7
		c-0.4,0-0.7,0.3-1.1,0.8c-0.5,0.5-1,1.2-1.6,2c-0.6,1-1,1.6-1,1.8v0.5c0,0.7,0,1.2,0.1,1.5c0.1,0.8,0.2,1.3,0.2,1.3
		c0.1,0.1,0.5-0.2,1.2-0.9c0.8-0.8,1.5-1.5,2.1-2.3l1.8-2.1c1.1-1.3,1.7-2.2,1.7-2.8c0-0.4-0.2-0.7-0.5-0.9
		C117.6,10.5,117.2,10.4,117,10.4z M157.6,13.2c-0.4-0.7-0.5-1.2-0.5-1.6c0-0.5,0.3-1,0.9-1.4c0.3-0.3,0.9-0.2,1.7,0.3
		c0.8,0.5,1.5,1.1,2.1,2l1.4,2.2c0.6,1,0.9,2.3,0.9,3.8c0,1-0.2,2.3-0.5,3.7c-0.2,1-0.7,2.2-1.5,3.6c-0.8,1.4-1.5,2.3-2,2.7
		c-1.6,1.6-2.8,2.6-3.5,3s-1.6,0.9-2.7,1.2c-0.2,0.1-0.8,0.2-1.6,0.5c-0.9,0.3-1.8,0.4-2.8,0.4c-0.5,0-0.8,0-1.1-0.1
		c-0.8-0.1-1.6-0.8-2.3-2.1c-0.4-0.7-0.7-1.8-1-3.4c-0.3-0.8-0.7-1.2-1.2-1.2c-0.4,0-0.8,0.2-1.2,0.5l-2.8,2
		c-1.3,0.9-2.4,1.4-3.2,1.4c-0.4,0-0.8-0.2-1.2-0.5c-0.5-0.4-0.8-0.8-1.1-1.2c-0.3-0.4-0.4-1.1-0.4-2.2c0.2-1.7,0.6-3.5,1.4-5.3
		c0.8-1.8,1.8-3.4,3-4.8c0.9-1.1,1.6-1.7,2-2c0.4-0.2,0.8-0.2,1.2,0c0.4,0.2,0.7,0.4,0.9,0.8c0.2,0.4,0.3,0.8,0.3,1.2
		c0,0.3-0.1,0.6-0.2,0.8c-0.4,0.8-1,1.5-1.8,2.3c-0.7,0.7-1.2,1.2-1.4,1.5c-0.3,0.4-0.6,1-0.9,1.7c-0.3,0.7-0.4,1.4-0.4,2
		c0,0.6,0.2,0.9,0.6,0.9c0.6,0,1.5-0.5,2.8-1.6c0.1-0.1,0.5-0.4,1.2-0.9c0.7-0.6,1.4-0.9,2-0.9c0.4,0,0.7,0.1,0.9,0.3
		c0.3,0.2,0.5,0.5,0.7,0.8s0.4,0.5,0.5,0.7c0.6,0.8,1,1.5,1.3,2.1c0.3,0.6,0.6,1.2,0.9,2c0.3,0.7,0.7,1,1,0.9
		c1.5-0.3,2.6-0.6,3.4-0.9c0.7-0.3,1.5-0.8,2.3-1.6c0.8-0.8,1.7-2,2.9-3.8c0.9-1.7,1.3-3.2,1.3-4.3c0-0.7-0.2-1.4-0.5-2.1
		c-0.3-0.7-0.6-1.4-1.1-2.2C158.1,14.2,157.8,13.6,157.6,13.2z M187,1.9c0,0.3-1.2,1.9-3.6,4.8c-0.6,1-1,1.7-1.3,2.1
		c-0.3,0.3-0.5,0.7-0.6,1c-0.2,0.3-0.3,0.8-0.4,1.3c0.2,0.7,0.6,1.4,1.2,2.1c0.6,0.6,1,1.1,1.3,1.6l1.3,1.6c1.1,1.4,1.7,2.9,1.7,4.8
		c0,0.6-0.1,1.6-0.4,2.9c-0.6,2.7-1.6,4.6-2.9,5.7c-1.5,1.2-3,2.4-4.6,3.6l-3.6,2.6c-1.5,0.8-2.5,1.2-3.1,1.2
		c-0.5,0-0.8-0.2-0.8-0.6c0-0.4,0.3-0.9,0.9-1.6c1-1,2.3-2.2,3.9-3.4c1.6-1.2,2.7-2.2,3.4-2.9c0.7-0.7,1.3-1.6,2-2.7
		c0.5-0.8,0.9-1.7,1.2-2.7c0.3-0.9,0.5-1.8,0.5-2.5c0-0.9-0.1-1.6-0.2-1.9c-0.2-0.3-0.5-0.7-1.1-1.2c-0.2-0.2-0.3-0.3-0.5-0.5
		c-0.2-0.2-0.4-0.4-0.7-0.6c-0.4-0.4-0.8-0.7-1.2-1c-0.6-0.5-1-0.9-1.4-1.2c-0.3-0.4-0.6-0.9-0.9-1.5c-0.2-0.6-0.3-1.1-0.3-1.5
		c0-0.2,0.1-0.4,0.2-0.9c0.1-0.2,0.3-0.7,0.7-1.3c0.4-0.7,1-1.9,2-3.6c2.9-3.4,4.6-5.1,5-5.2c0.4-0.2,0.7-0.3,1-0.3
		c0.4,0,0.8,0.3,1.1,0.8C186.9,1.4,187,1.7,187,1.9z"/>
</g>
</svg>
