<?xml version="1.0" encoding="utf-8"?>
<!-- Generator: Adobe Illustrator 27.0.0, SVG Export Plug-In . SVG Version: 6.00 Build 0)  -->
<svg version="1.1" id="圖層_1" xmlns="http://www.w3.org/2000/svg" xmlns:xlink="http://www.w3.org/1999/xlink" x="0px" y="0px"
	 viewBox="0 0 250 56" style="enable-background:new 0 0 250 56;" xml:space="preserve">
<style type="text/css">
	.st0{fill:#E1E3E5;}
</style>
<g>
	<path class="st0" d="M32.1,1.6c1.4,0.4,2.3,0.8,2.8,1.1c0.5,0.3,0.9,0.5,1,0.5c0.5,0.2,1,0.5,1.3,0.8c0.4,0.2,0.7,0.7,1,1.4
		c0.3,0.5,0.4,1.1,0.5,1.6l0.1,0.9c0,1-0.3,1.9-0.8,2.7L37.1,12c-0.2,0.4-0.5,0.8-0.9,1.2l-1.2,1.3c-1.1,1.6-2.9,3-5.4,4.3
		c-1.1,0.6-1.9,1.1-2.3,1.3c-0.3,0.2-0.7,0.5-1.3,0.8c-1.2,0.6-1.9,1.2-2,1.8l-0.4,1.4L23,26.2c-0.3,1.4-0.6,2.5-0.9,3.4
		c-0.7,2.7-1.2,4.6-1.3,5.7c-0.1,0.9-0.2,1.5-0.4,1.8l-0.2,1.4c0,0.3-0.1,0.8-0.4,1.5c-0.3,0.6-0.5,0.9-0.6,0.9
		c-0.2,0-0.7-0.2-1.4-0.6l-1.1-0.5V38c0-1.9,0.3-4.1,0.9-6.4c0.2-0.5,0.3-0.8,0.3-1l0.2-1.1l0.7-2.8c0.6-2,0.9-3.7,0.9-4.9
		c0-0.5,0-0.9-0.1-1.1c-0.1-0.3-0.1-0.6,0-0.8l0.4-0.9c0.4-0.6,0.7-1.4,0.9-2.3c0.1-0.5,0.3-1.2,0.6-2.2c0.2-0.3,0.6-1.8,1.2-4.6
		c0.2-1,0.5-2,0.9-2.8c0.2-0.5,0.3-1,0.4-1.7c0.3-0.9,0.4-1.5,0.5-1.6c0.2-0.4,0.2-0.7,0-0.7h-0.1l-1.2,0.3l-1,0.2l-0.5,0.2
		c-0.3,0-0.6,0.2-1.1,0.5l-1.6,1.2c-0.5,0.4-0.9,0.8-1,1.2c-0.2,0.3-0.3,0.4-0.5,0.4S17.3,7,17,7.2c-0.3,0.3-0.6,0.4-0.9,0.2
		C16.1,7.3,16,7.2,16,7.1c0-0.3,0.1-0.6,0.3-0.9c0.5-1.3,1.1-2.3,2-3c0.6-0.3,1.1-0.6,1.5-0.9c1.1-0.9,2.5-1.5,4.2-1.6
		c1.9-0.1,2.8-0.2,2.7-0.2h0.5c0.3,0,0.9,0.1,1.8,0.2c0.8,0.2,1.8,0.4,3,0.9H32.1z M28,5.1c0,1.6-0.3,3.2-0.8,4.8
		c-0.3,1.1-0.4,1.8-0.4,1.9c0,0.5-0.1,1-0.3,1.4L26,14.7l-0.5,2c-0.3,0.9-0.3,1.3-0.2,1.3c0,0.1,0.1,0.1,0.2,0.1l1-0.4l1-0.5
		l1.3-0.9l2.7-2c0.6-0.4,1.2-0.9,1.8-1.7c0.6-0.7,1.1-1.5,1.7-2.3l1.2-1.8c0.4-0.7,0.6-1.2,0.5-1.6c-0.1-0.3-0.4-0.7-0.9-1.2
		c-0.7-0.5-1.2-0.8-1.7-1c-0.6-0.3-0.9-0.5-1.1-0.7l-1.2-0.4c-0.7-0.1-1.2-0.2-1.6-0.4c-0.4-0.2-0.8-0.3-1.2-0.3
		c-0.3,0-0.5,0.1-0.6,0.3C28.1,3.3,28,3.9,28,5.1z M55.8,13.8l0.2,0.4c0.1,0.4,0.2,0.8,0.4,1.2l0.5,1.2c0.1,0.5,0.3,0.7,0.6,0.7
		c0.2,0,0.5-0.2,1.1-0.6c1.5-1.2,3.4-1.8,5.5-1.8c1.2,0,2.5,0.3,3.8,0.9c0.4,0.2,0.7,0.4,0.9,0.9c0.3,0.4,0.5,0.7,0.5,0.9
		c-0.1,0.1-0.2,0.2-0.2,0.2H69l-1.9-0.2c-1.5-0.1-3.1,0.4-5,1.2c-2.7,1.4-4.5,2.7-5.3,4c-0.3,0.4-0.4,1.1-0.5,2.1
		c-0.1,0.8-0.2,1.6-0.5,2.3l-0.5,3.6L55,32.9c-0.1,0.8-0.2,1.3-0.2,1.5c-0.1,0.8-0.3,1.2-0.5,1.2c-0.3,0.1-0.5,0.2-0.6,0.2L53,35.7
		c-0.6-0.1-1-0.2-1.2-0.5c-0.2-0.1-0.3-0.5-0.3-1.1c0-1.1,0-2,0.1-2.4c0-0.3,0-0.5,0-0.9c0.1-0.4,0.1-0.7,0-1V28l0.1-1.1
		c0.8-1.9,1.4-5.6,1.6-11.2c0.1-1.1,0.3-1.8,0.5-2c0.2-0.1,0.5-0.1,1.1-0.2h0.8L55.8,13.8z M82.7,18.9c0.5-0.2,1-0.2,1.6-0.2h0.9
		c1,0.2,1.7,0.4,2.3,0.9c0.4,0.4,0.9,1.2,1.6,2.3l0.6,1.5l-0.1,2.8c-0.7,1.6-1,2.6-1,2.9c0,0.2-0.1,0.4-0.2,0.7L88,30.4l-0.3,0.5
		c-0.3,0.3-0.5,0.6-0.6,1c-0.5,0.8-1.1,1.5-1.9,2.1c-1,0.8-1.9,1.4-2.8,1.8c-0.6,0.3-1.1,0.4-1.5,0.4c-0.4,0-1-0.2-1.6-0.5l-1.1-0.5
		c-0.2-0.2-0.4-0.7-0.9-1.3c-0.4-0.7-0.6-1.2-0.7-1.5l-0.1-0.5l0.1-0.9c0-1.5,0.2-3.2,0.7-5.1c0.3-1,0.8-2.1,1.5-3
		c0.7-1,1.5-1.9,2.2-2.7c0.8-0.8,1.2-1.1,1.2-1.1L82.7,18.9z M80.6,25.2c-0.1,0-0.2,0.3-0.2,0.8c-0.2,0.4-0.2,0.8-0.2,1.3L80,28.8
		l-0.1,0.8c0,0.5,0.1,0.9,0.2,1.3c0.3,0.5,0.6,0.7,1,0.7c0.2,0,0.3,0,0.3-0.1c0.7-0.2,1.5-0.6,2.4-1.4c1-1,1.6-1.7,1.6-2l1.2-2.5
		c0.1,0,0.1-0.3,0.2-0.9l-0.2-1.2c-0.3-0.8-0.5-1.4-0.8-1.6c-0.2-0.2-0.7-0.2-1.3-0.2c-0.7,0.2-1.3,0.5-1.9,1
		c-0.3,0.3-0.5,0.5-0.7,0.8c-0.2,0.1-0.4,0.2-0.6,0.5C81.2,24.2,80.9,24.6,80.6,25.2z M115.6,10.9c0.6,0,1.2,0.1,1.6,0.3
		c1.1,0.4,2,0.9,2.5,1.5l1.2,1.8c0.2,0.2,0.3,0.4,0.3,0.7c0.1,0.1,0.1,0.3,0.1,0.7l-0.1,0.8v0.9c0.1,0.2,0.1,0.5,0.1,1.1
		c0,1-0.3,1.8-0.9,2.3c-0.4,0.2-0.7,0.5-0.7,0.9c-0.1,0.3-0.4,1.5-1,3.4c-0.2,1.1-0.4,1.8-0.5,2.1l-0.2,1.6c0,0.6-0.1,1.1-0.3,1.5
		c-0.2,0.4-0.3,0.9-0.4,1.7c-0.1,0.5-0.2,1.1-0.5,2c-0.3,0.8-0.5,1.3-0.5,1.5l-0.2,1l-1.1,3.3l-0.3,1c-0.2,0.3-0.3,0.5-0.2,0.7v0.2
		c0,0.3,0,0.5-0.1,0.7l-0.5,1.5l-0.6,1.3c-0.4,0.6-0.7,1.5-1,2.7c-0.5,2-1.1,3.3-1.6,4c-0.2,0.2-0.5,0.6-1,1.4
		c-0.4,0.8-1,1.4-1.9,1.7l-1.3,0.6l-2.9-0.1l-1.9-0.1c-1.1,0-1.7,0-2-0.1c-1.6-0.4-2.7-0.8-3.5-1.2l-1.6-1.1
		c-1.9-1.2-3.1-3.1-3.8-5.6c-0.2-1.5-0.3-2.3-0.3-2.5c0-0.6,0.1-1.1,0.3-1.6c0.1-0.1,0.2,0.1,0.3,0.3l0.2,0.5c0.2,0.6,0.3,0.9,0.4,1
		c0.1,0.1,0.1,0.3,0.1,0.6V46c0,0.3,0.2,0.9,0.6,1.7c0.5,0.9,0.9,1.6,1.4,2.1c1.1,1.1,2.6,1.9,4.6,2.3c1,0.2,2,0.3,2.7,0.3
		c2.2,0,3.8-0.3,4.9-0.8c1-0.5,2.3-3.1,3.8-7.8c0.2-0.5,0.3-0.9,0.4-1.3c0.2-0.4,0.3-0.8,0.4-1.1c1.2-3.8,1.9-5.9,2.2-6.6
		c0.1-0.2,0.3-1,0.6-2.3c0.3-1.1,0.5-1.9,0.6-2.2c0.2-0.5,0.4-1,0.5-1.6c0.1-0.3,0.2-0.8,0.3-1.5c0.2-0.5,0.2-0.8,0-0.9h-0.1
		c-0.2,0-0.4,0.1-0.5,0.2l-0.5,0.2c-0.4,0.2-0.8,0.3-1.4,0.3l-0.9-0.2c-0.7-0.2-1.5-0.8-2.4-1.7c-1.1-1.3-1.7-2.7-1.7-4.1
		c0-1.8,0.6-3.6,1.9-5.3c0.5-0.8,1.2-1.7,2.2-2.7c1.1-1.1,1.8-1.7,2.1-1.7c0.4-0.1,0.8-0.3,1.2-0.5C114.9,11,115.2,10.9,115.6,10.9
		L115.6,10.9z M117.5,14.2c-0.4,0-0.9,0.1-1.5,0.3c-0.9,0.4-1.8,1.1-2.9,2.1c-1.6,1.6-2.4,3.2-2.5,4.8c-0.1,0.3-0.2,0.7-0.2,1.1
		c0,0.4,0,0.7,0.1,0.7c0.3,0.5,0.7,0.7,1.2,0.7c0.5,0,1.4-0.3,2.5-0.9c1.1-0.7,1.8-1.6,2-2.5l0.7-2.3c0.7-2,1-3.2,1-3.6
		C118,14.4,117.9,14.2,117.5,14.2z M141.2,13.8l0.2,0.4c0.1,0.4,0.2,0.8,0.4,1.2l0.5,1.2c0.1,0.5,0.3,0.7,0.6,0.7
		c0.2,0,0.5-0.2,1.1-0.6c1.5-1.2,3.4-1.8,5.5-1.8c1.2,0,2.5,0.3,3.8,0.9c0.4,0.2,0.7,0.4,0.9,0.9c0.3,0.4,0.5,0.7,0.5,0.9
		c-0.1,0.1-0.2,0.2-0.2,0.2h-0.1l-1.9-0.2c-1.5-0.1-3.1,0.4-5,1.2c-2.7,1.4-4.5,2.7-5.3,4c-0.3,0.4-0.4,1.1-0.5,2.1
		c-0.1,0.8-0.2,1.6-0.5,2.3l-0.5,3.6l-0.3,2.2c-0.1,0.8-0.2,1.3-0.2,1.5c-0.1,0.8-0.3,1.2-0.5,1.2c-0.3,0.1-0.5,0.2-0.6,0.2
		l-0.6-0.1c-0.6-0.1-1-0.2-1.2-0.5c-0.2-0.1-0.3-0.5-0.3-1.1c0-1.1,0-2,0.1-2.4c0-0.3,0-0.5,0-0.9c0.1-0.4,0.1-0.7,0-1V28l0.1-1.1
		c0.8-1.9,1.4-5.6,1.6-11.2c0.1-1.1,0.3-1.8,0.5-2c0.2-0.1,0.5-0.1,1.1-0.2h0.8L141.2,13.8z M171.2,13.5c0.1-0.1,0.3-0.1,0.6-0.1
		c1.7,0,2.8,0.2,3.2,0.5c0.2,0.2,0.5,0.3,0.9,0.3c0.6,0,1.1,0.6,1.4,1.7l0.2,1.2l-0.9,2l-0.9,2c0,0.1-0.2,0.4-0.6,0.9
		c-0.5,0.5-0.8,0.9-0.9,1.4c-0.2,0.5-0.8,1.2-1.9,2.3c-1,1.1-1.5,1.8-1.5,2.1c0,0.4,0.9,0.9,2.6,1.5c1.5,0.4,3.2,0.6,5.2,0.6
		c1.8,0,3.2-0.1,4-0.2c0.6-0.2,0.9-0.1,1.1,0.1c0.1,0.1,0.1,0.2,0.1,0.5c0,0.4-0.1,0.7-0.2,1c-0.2,0.8-0.5,1.4-1,1.7
		c-0.6,0.4-1.5,0.7-2.7,0.9c-0.3,0.1-0.8,0.1-1.6,0.1c-1.5,0-2.9-0.2-4.1-0.5c-1.9-0.6-3.4-1.3-4.5-2.1c-0.8-0.9-1.5-1.1-2-0.6
		c-1,0.7-2.1,1.1-3.2,1.2h-0.3c-0.5,0-1-0.2-1.3-0.5l-0.9-0.9c-0.1-0.1-0.1-0.1-0.1-0.2c0-0.4,0.4-0.8,1.3-1.2
		c0.5-0.2,1.1-0.6,1.8-1.2c0.6-0.4,0.9-0.8,0.9-1.1v-0.3c0-0.4-0.1-0.8-0.2-1.3c-0.2-0.5-0.3-1.4-0.3-2.9c0-1.5,0.1-2.4,0.3-2.9
		c0.9-2.6,2.3-4.3,4.1-5.2C170.3,13.8,170.8,13.6,171.2,13.5z M174.6,14.4c-0.2,0.1-0.5,0.3-0.9,0.8c-0.5,0.5-0.9,0.7-1.2,0.7
		c-0.4,0-0.7,0.3-1.1,0.8c-0.5,0.5-1,1.2-1.6,2c-0.6,1-1,1.6-1,1.8v0.5c0,0.7,0,1.2,0.1,1.5c0.1,0.8,0.2,1.3,0.2,1.3
		c0.1,0.1,0.5-0.2,1.2-0.9c0.8-0.8,1.5-1.5,2.1-2.3l1.8-2.1c1.1-1.3,1.7-2.2,1.7-2.8c0-0.4-0.2-0.7-0.5-0.9
		C175.1,14.5,174.8,14.4,174.6,14.4z M206.5,5.9c0,0.3-1.2,1.9-3.6,4.8c-0.6,1-1,1.7-1.3,2.1c-0.3,0.3-0.5,0.7-0.6,1
		c-0.2,0.3-0.3,0.8-0.4,1.3c0.2,0.7,0.6,1.4,1.2,2.1c0.6,0.6,1,1.1,1.3,1.6l1.3,1.6c1.1,1.4,1.7,2.9,1.7,4.8c0,0.6-0.1,1.6-0.4,2.9
		c-0.6,2.7-1.6,4.6-2.9,5.7c-1.5,1.2-3,2.4-4.6,3.6l-3.6,2.6c-1.5,0.8-2.5,1.2-3.1,1.2c-0.5,0-0.8-0.2-0.8-0.6
		c0-0.4,0.3-0.9,0.9-1.6c1-1,2.3-2.2,3.9-3.4c1.6-1.2,2.7-2.2,3.4-2.9c0.7-0.7,1.3-1.6,2-2.7c0.5-0.8,0.9-1.7,1.2-2.7
		c0.3-0.9,0.5-1.8,0.5-2.5c0-0.9-0.1-1.6-0.2-1.9c-0.2-0.3-0.5-0.7-1.1-1.2c-0.2-0.2-0.3-0.3-0.5-0.5c-0.2-0.2-0.4-0.4-0.7-0.6
		c-0.4-0.4-0.8-0.7-1.2-1c-0.6-0.5-1-0.9-1.4-1.2c-0.3-0.4-0.6-0.9-0.9-1.5c-0.2-0.6-0.3-1.1-0.3-1.5c0-0.2,0.1-0.4,0.2-0.9
		c0.1-0.2,0.3-0.7,0.7-1.3c0.4-0.7,1-1.9,2-3.6c2.9-3.4,4.6-5.1,5-5.2c0.4-0.2,0.7-0.3,1-0.3c0.4,0,0.8,0.3,1.1,0.8
		C206.4,5.4,206.5,5.7,206.5,5.9z M233.9,5.9c0,0.3-1.2,1.9-3.6,4.8c-0.6,1-1,1.7-1.3,2.1c-0.3,0.3-0.5,0.7-0.6,1
		c-0.2,0.3-0.3,0.8-0.4,1.3c0.2,0.7,0.6,1.4,1.2,2.1c0.6,0.6,1,1.1,1.3,1.6l1.3,1.6c1.1,1.4,1.7,2.9,1.7,4.8c0,0.6-0.1,1.6-0.4,2.9
		c-0.6,2.7-1.6,4.6-2.9,5.7c-1.5,1.2-3,2.4-4.6,3.6L222,40c-1.5,0.8-2.5,1.2-3.1,1.2c-0.5,0-0.8-0.2-0.8-0.6c0-0.4,0.3-0.9,0.9-1.6
		c1-1,2.3-2.2,3.9-3.4c1.6-1.2,2.7-2.2,3.4-2.9c0.7-0.7,1.3-1.6,2-2.7c0.5-0.8,0.9-1.7,1.2-2.7c0.3-0.9,0.5-1.8,0.5-2.5
		c0-0.9-0.1-1.6-0.2-1.9c-0.2-0.3-0.5-0.7-1.1-1.2c-0.2-0.2-0.3-0.3-0.5-0.5c-0.2-0.2-0.4-0.4-0.7-0.6c-0.4-0.4-0.8-0.7-1.2-1
		c-0.6-0.5-1-0.9-1.4-1.2c-0.3-0.4-0.6-0.9-0.9-1.5c-0.2-0.6-0.3-1.1-0.3-1.5c0-0.2,0.1-0.4,0.2-0.9c0.1-0.2,0.3-0.7,0.7-1.3
		c0.4-0.7,1-1.9,2-3.6c2.9-3.4,4.6-5.1,5-5.2c0.4-0.2,0.7-0.3,1-0.3c0.4,0,0.8,0.3,1.1,0.8C233.8,5.4,233.9,5.7,233.9,5.9z"/>
</g>
</svg>
