<svg width="259" height="67" viewBox="0 0 259 67" fill="none" xmlns="http://www.w3.org/2000/svg">
<path fill-rule="evenodd" clip-rule="evenodd" d="M19.038 13.0028C13.5373 13.1063 8.84802 16.3985 5.36588 20.611C1.81952 24.9012 -1.01391 30.2375 0.348392 35.6126C1.68591 40.8898 6.68738 44.2718 11.8434 46.1687C16.3908 47.8416 21.1462 46.7677 25.6196 44.9098C30.5131 42.8774 35.8574 40.5591 37.4247 35.5442C39.097 30.1934 36.9341 24.4429 33.3785 20.0839C29.8491 15.757 24.6582 12.8971 19.038 13.0028Z" fill="#E1E3E5"/>
<path fill-rule="evenodd" clip-rule="evenodd" d="M233.981 6.37091C230.666 8.11853 229.634 12.1988 229.118 15.9609C228.604 19.7066 228.705 23.7281 231.204 26.603C233.775 29.562 237.786 30.6127 241.633 30.3616C245.487 30.1101 249.145 28.4527 251.356 25.288C253.619 22.0479 254.542 17.7667 253.036 14.038C251.636 10.5725 247.786 9.31658 244.346 7.93238C240.919 6.55334 237.206 4.67061 233.981 6.37091Z" fill="#E1E3E5"/>
<path fill-rule="evenodd" clip-rule="evenodd" d="M103.011 54.0025C104.485 53.9308 105.639 55.4329 106.556 56.9262C107.468 58.413 108.225 60.1719 107.939 62.0331C107.644 63.9487 106.484 65.3998 105.124 66.2492C103.761 67.0999 102.188 67.2958 100.812 66.4817C99.403 65.6483 98.246 64.0323 98.0256 62.0501C97.8207 60.2078 98.8858 58.7082 99.7858 57.2553C100.683 55.8078 101.577 54.0721 103.011 54.0025Z" fill="#E1E3E5"/>
<path fill-rule="evenodd" clip-rule="evenodd" d="M190.73 41.0081C188.352 40.8794 186.153 42.2941 184.692 44.2666C183.254 46.2076 182.608 48.7447 183.246 51.1103C183.849 53.3509 185.783 54.729 187.783 55.739C189.782 56.7489 192.031 57.5139 194.06 56.5727C196.156 55.6007 197.518 53.4064 197.917 51.0392C198.294 48.8058 197.334 46.6937 196.034 44.8806C194.673 42.98 192.993 41.1306 190.73 41.0081Z" fill="#E1E3E5"/>
<path fill-rule="evenodd" clip-rule="evenodd" d="M79.7913 18.0102C76.7789 17.8492 73.9938 19.6176 72.1427 22.0832C70.3212 24.5095 69.5038 27.6808 70.3111 30.6379C71.0758 33.4386 73.5249 35.1612 76.0579 36.4237C78.5905 37.6861 81.4387 38.6424 84.0096 37.4659C86.6645 36.2509 88.3888 33.508 88.8952 30.549C89.3728 27.7572 88.1558 25.1171 86.5103 22.8507C84.7855 20.4751 82.6583 18.1633 79.7913 18.0102Z" fill="#E1E3E5"/>
</svg>
